<?xml version="1.0" encoding="UTF-8"?>
<svg id="Layer_2" data-name="Layer 2" xmlns="http://www.w3.org/2000/svg" viewBox="0 0 55.06 55.06">
  <defs>
    <style>
      .cls-1, .cls-2 {
        stroke-width: 0px;
      }

      .cls-2 {
        fill: #b0ffa0;
      }
    </style>
  </defs>
  <g id="Layer_1-2" data-name="Layer 1">
    <g>
      <rect class="cls-2" width="55.06" height="55.06" rx="12" ry="12"/>
      <path class="cls-1" d="m37.55,8.94c-1.58-.92-3.29-1.45-5.12-1.6-.1,0-.2-.04-.31-.07h-1.5c-.71.12-1.43.22-2.13.38-1.31.29-2.53.82-3.66,1.54-3.06,1.94-6.1,3.91-9.18,5.83-5.03,3.13-6.42,9.42-4,14.33.09.18.14.32.02.54-2.44,4.29-2.22,8.51.53,12.54,2.22,3.25,5.4,4.97,9.33,5.29.1,0,.2.04.3.06h.95c.83-.13,1.67-.22,2.49-.39,1.33-.28,2.55-.83,3.69-1.56,3-1.91,6.01-3.81,9-5.73,3.63-2.33,5.33-5.68,5.21-9.96-.04-1.55-.46-3.01-1.14-4.41-.07-.15-.08-.4,0-.53,3.48-5.89,1.18-12.96-4.49-16.27Zm-17.13,16.71c.44.99,1.59,1.51,2.64,1.2.26-.08.52-.2.75-.35,1.11-.69,2.2-1.4,3.3-2.1,4.53-2.87,10.57-.12,11.3,5.2.36,2.65-.57,4.87-2.82,6.36-3.15,2.09-6.35,4.12-9.57,6.1-4.32,2.66-9.98.3-11.12-4.59-.33-1.41-.16-2.8.3-4.22.36.25.66.46.96.67.99.67,2.06,1.17,3.2,1.52.24.07.36.15.34.45-.06.92.33,1.64,1.13,2.11.79.46,1.6.41,2.36-.07,3.08-1.96,6.16-3.92,9.23-5.89.98-.63,1.28-1.68.79-2.68-.47-.95-1.68-1.47-2.69-1.11-.25.09-.48.21-.7.35-1.09.69-2.18,1.39-3.27,2.07-4.3,2.67-10.04.28-11.17-4.64-.63-2.72.48-5.51,2.82-7.02,3.13-2.02,6.27-4.04,9.42-6.03,4.48-2.83,10.42-.14,11.27,5.09.18,1.12,0,2.6-.46,3.66-1.37-1.02-2.83-1.82-4.46-2.26-.03-.37,0-.72-.08-1.04-.35-1.51-2.08-2.17-3.42-1.32-2.74,1.75-5.48,3.51-8.22,5.27-.33.21-.67.42-1,.64-.96.62-1.29,1.65-.84,2.64Z"/>
    </g>
  </g>
</svg>