<?xml version="1.0" encoding="UTF-8"?>
<svg id="Layer_2" data-name="Layer 2" xmlns="http://www.w3.org/2000/svg" xmlns:xlink="http://www.w3.org/1999/xlink" viewBox="0 0 1550.13 1395.29">
  <defs>
    <style>
      .cls-1 {
        clip-path: url(#clippath);
      }

      .cls-2 {
        fill: none;
      }

      .cls-2, .cls-3, .cls-4, .cls-5, .cls-6, .cls-7, .cls-8, .cls-9, .cls-10 {
        stroke-width: 0px;
      }

      .cls-3, .cls-4, .cls-5, .cls-6, .cls-7, .cls-8 {
        fill-rule: evenodd;
      }

      .cls-3, .cls-9 {
        fill: #191919;
      }

      .cls-4 {
        fill: #ffb655;
      }

      .cls-5, .cls-10 {
        fill: #fff;
      }

      .cls-6 {
        fill: #ba9bc9;
      }

      .cls-7 {
        fill: #ba6cff;
      }

      .cls-8 {
        fill: #f15a24;
      }
    </style>
    <clipPath id="clippath">
      <path class="cls-2" d="m398.3,939.22h748.84c25.8,0,46.74,20.94,46.74,46.74v349.85c0,25.8-20.94,46.74-46.74,46.74H398.3c-25.8,0-46.74-20.94-46.74-46.74v-349.84c0-25.8,20.94-46.74,46.74-46.74Z"/>
    </clipPath>
  </defs>
  <g id="_Layer_" data-name="&amp;lt;Layer&amp;gt;">
    <g>
      <g>
        <g>
          <path class="cls-7" d="m11.55,331.74c-1.47-16.21,3.54-25.96,14.33-30.22,4.11-1.62,9.68-2.58,14.95-3.43,5.15-.83,12.82-.64,16.51-2.81,8.99-5.27,3.5-29.2,8.41-38.95,3.75-7.45,12.81-13.88,20.87-18.07,2.75-1.43,6.35-3.42,9.04-3.74,2-.24,2.7,1.17,5.61.94,2.49-.2,2.85-2.78,5.61-3.43,3.69-.87,7.42.98,9.66,2.18,2.57,1.37,4.39,4.5,7.48,4.36,2.97-.13,5.21-3.39,5.3-5.61.3-7.77-13.26-11.76-21.81-12.15,7.71-16.9,21.3-28.28,38.04-35.31.03-4.14.28-8.3.48-12.44-24.65,9.03-43.39,26.13-50.98,49.92-13.45,4.34-24.86,10.69-33.34,19.94-9.37,10.24-9.85,24.18-10.9,42.68-26.29,2.45-48.23,7.63-50.16,34.58-.43,6.07-1.7,15.4,1.25,19.63,2.32,3.33,8.11,3.11,14.95,3.74,5.09.46,10.2,1.11,14.02,1.56,19.56,2.29,37.57,4.02,56.7,6.23,21.52,2.49,44.04,3.71,66.79,4.65v-10.84c-11.96-.44-23.85-1-35.63-1.91-36.9-2.84-72.5-7.97-107.18-11.53Z"/>
          <path class="cls-7" d="m1389.63,408.87c-12.32-6.22-28.46-11.68-46.08-14.95-6.48-1.2-14.47-.98-18.37-4.36-2.98-2.59-4.03-7.15-6.23-10.9-5.46-9.31-15.76-19.79-25.84-24.6-3.24-1.54-7.43-2.59-11.52-3.11-4.52-.57-10.29-.71-14.01-3.11-5.1-3.3-7.4-9.93-10.28-14.95-3.14-5.47-6.28-10.7-9.97-14.94-7.57-8.73-17.93-17.19-30.2-19.62-3.19-.63-11.85.23-12.45-5.29-.62-5.71,4.94-6.77,11.21-6.23,15.34,1.34,27.26,11.07,35.81,19.62,6.77,6.77,11.89,14.71,17.13,24.29,1.32,2.41,3.56,7.16,5.61,8.1,2.77,1.27,7.25.91,9.65,1.25,9.53,1.34,16.09,4.66,22.73,9.65,10.7,8.04,19.6,17.92,25.84,31.14,22.45,3.07,43.4,9.02,61.96,17.75,5.31,2.5,11.42,5.14,11.52,10.9.24,13.7-27.32,11.27-41.41,11.83-19.05.76-34.65-.15-52.31-.93-24.57-1.08-52.03-1.24-78.78-1.24-7.07,0-20.91,2.02-20.86-5.61.04-6.82,9.81-5.6,17.75-5.6,54.45,0,106.52,3.82,159.11.93Z"/>
          <g>
            <path class="cls-3" d="m260.25,0h37.34c37.76,1.83,75.48.08,112.94,1.87,37.4,1.78,74.78,1.04,112,2.8,37.36,1.77,74.87.62,112.32.62s75.27-1.56,112.94-1.56c74.91,0,148.56-1.87,225.25-1.87,36.66,0,74.5-.93,112.63-.93,17.67,0,37-.67,55.69.62,12.84.88,27.67,1.98,40.45,2.49,4.66.19,9.71.27,13.38,1.25,9.06,2.41,13.31,12.43,14.93,24.27,1.62,11.82,3.5,23.68,4.04,35.16,2.49,52.24,3.72,101.38,1.56,152.76-1.08,25.63-1.24,50.85-1.24,76.85,0,51.8,4.26,101.14,3.42,153.07-.62,38.38-1.25,76.81-2.18,115.74-.31,12.9-.11,26.58-3.11,36.4-.98,3.19-2.78,6.42-6.85,5.91-7.86-.97-2.91-11.77-2.18-18.05,1.83-15.63.92-33.42,1.56-48.54,1.9-44.96,1.25-86.86,1.25-130.98,0-22.04-1.07-43.84-1.87-65.03-1.67-44.46-1.72-88.01.31-130.67,2.05-42.91,1.38-87.98-.93-130.05-.4-.02-.43-.4-.93-.31-26.41.86-53.16-1.83-80.58-2.49-76.16-1.83-153.29,1.55-230.85-.31-6.8-.16-15.5.57-16.18-4.98-.99-8.08,9.22-6.22,16.49-6.22h146.85c28.36,0,56.34-.83,83.38.31,27.2,1.15,53.97,3.07,81.2,2.49v-.94c-.13-8.43-1.19-17.28-2.49-25.82-1.31-8.62-1.46-17.21-4.35-23.96-2.46-5.74-9.24-4.23-18.36-4.67-5.38-.26-11.07-.93-15.56-1.25-31.48-2.21-66.27-2.9-96.76-1.56-22.26.98-44.51.31-66.27.31-64.78,0-130.92.88-195.7,1.56-43.12.45-86.39.15-131.3,1.56-21.65.68-43.59,1.03-65.33.62-33.05-.61-65.81.31-98.32-1.24-10.85-.52-21.88-.62-32.67-.62-44.1,0-86.88-2.49-130.98-2.49-21.84,0-43.86-.93-65.96-.93s-43.67.81-65.34,1.56c-20.99.72-47.22-.32-60.67,6.22-3.82,1.86-5.94,3.81-6.84,7.47-3.16,12.72.98,27.74,0,42.62,58.59-1.15,117.63-2.49,177.03-2.49s118.18,2.8,177.03,2.8h89.29c45.25,0,89.26.26,134.09-.62,37.64-.74,73.06-.31,111.38-.31,6.72,0,17.09-1.33,17.42,5.29.38,7.67-9.84,5.91-18.36,5.91-53.2,0-104.23.31-155.87.31-88.82,0-180.14,2.32-266.94-.93-88.54-3.32-177.65-.04-264.46.93-.93,6.79-.45,14.8-7.16,14.31-4.56-.33-5.06-4.16-4.67-8.71.41-4.77-.08-8.75-.93-12.76,1.52-3.47,1.11-7.64.93-11.51-.53-11.76-1.59-25.74,0-36.09,2.2-14.29,14.9-18.42,29.24-20.84,14.42-2.44,30.79-2.02,47.29-2.8,16.32-.78,32.84-.8,48.54-1.56Z"/>
            <path class="cls-3" d="m143.89,122.27c7.26-1.34,6.49,6.52,6.85,14.62,1.62,36.87.79,73.34,2.49,109.83,1.94,41.65,3.25,83.97,4.67,123.83.74,20.69,1.77,41.43,2.18,62.22,1.04,52.61,1.88,104.07,5.91,154.63.81,10.12.84,20.28,2.49,29.56,2.16,12.14,15.12,13.24,29.56,14.93,27.79,3.27,59.08,3.91,88.05,5.29,38.99,1.86,80.78,3.11,121.34,3.11,39.72,0,80.42-.82,120.72-1.24,61.41-.64,123,.62,184.5.62s121.2-.31,184.5-.31c58.74,0,125.61.94,177.03-8.4,11.25-2.04,25.61-4.81,39.2-7.47,5.43-1.07,11.12-1.25,10.89,4.98-.21,5.87-10.36,6.62-16.49,7.78-21.65,4.09-39.35,7.96-61.91,10.27-29.38,3.01-60.83,4.05-91.78,4.04-61.36,0-127.93.62-189.79.62-65.47,0-127.3-1.25-191.03-1.24-31.89,0-61.88.62-93.34,1.24-60.64,1.2-128.16-.61-188.23-2.49-31.07-.97-61.19-2.22-91.16-5.29-14.78-1.52-29.19-3.55-36.71-11.51-7.2-7.61-7.55-25.29-8.71-39.51-3.61-44.15-4.87-91.56-5.6-139.07-1.17-76.97-5.44-156.42-8.09-233.03-.9-25.94-.69-55.29-1.56-82.76-.22-6.88-2.14-14.1,4.04-15.25Z"/>
          </g>
          <g>
            <path class="cls-7" d="m1116.88,23.64c5.19-10.54,22.59-3.18,23.43,6.87,1.18,14.08-20.59,20.51-29.06,9.69-4.04-5.16-2.82-16.79,5.63-16.56Zm3.44,9.68c2.41,1.49,8.2,1.54,8.43-1.87-2.51-1.88-8.76-2.99-8.43,1.87Z"/>
            <path class="cls-7" d="m1055.33,29.57c-1.16-5.83,5.01-9.27,10.94-9.37,8.56-.15,14.48,6.87,15.31,13.12,1.47,11.14-7.61,18.5-18.12,18.12-6.12-.22-13.33-4.29-14.37-10.62-.77-4.7.38-11.62,6.25-11.25Zm15,6.25c.18-6.16-5.67-3.6-10-2.5.2,2.14-.05,3.11,0,5.62,3.84,2.67,9.89.64,10-3.12Z"/>
            <path class="cls-7" d="m1160.62,26.14c1.74-3.67,3.14-5.96,9.06-5,4.12.67,9.84,6.27,10.62,12.18,1.14,8.63-5.67,16.45-15.31,15.31-6.3-.75-12.69-7.3-13.43-13.12-.76-5.98,2.74-12.8,9.06-9.37Zm8.44,10.31c.27-1.83-.57-2.56-.94-3.75-1.61-.58-3.46-.91-5-1.56-1.71,4.13,2.92,7.87,5.94,5.31Z"/>
            <path class="cls-7" d="m908.8,156.11c-3.41-8.07,2.72-18.5,8.12-21.56,4.68-2.65,13.4-3.19,20.31-3.75,22.46-1.81,49.15-.31,71.86-.31,15.6,0,32.33-.42,47.18-.94,25.88-.89,45.72-2.74,71.55-1.87,9.69.32,19.17,1.3,23.75,6.56,2.68,3.08,4.26,8.71,5.62,14.06,1.35,5.27,3.29,10.18,4.38,15,2.39,10.66,2.5,23.73,2.5,36.55,0,12.08.41,25.78-1.87,37.18-2.11,10.5-7.16,21.56-15,24.06-3.49,1.11-9.3.31-15,.31-36.1,0-70.14,3.48-104.04,5.94-19.4,1.41-39.78,2.33-59.05,3.75-17.5,1.3-49.41,3.56-56.24-8.12-3.16-5.41-2.18-17.08-2.5-26.24-.67-19.27-1.07-36.66-1.87-54.99-.39-8.83-2.67-17.7.31-25.62Zm244.02,39.37c0-10.24-.12-20.75-2.19-29.99-.87-3.87-2.28-7.53-3.75-12.5-1.03-3.47-2.52-10.48-4.37-11.87-3.4-2.55-13.3-2.26-19.06-2.5-8.53-.36-15.94-.28-22.49.31-27.57,2.47-58.63,1.4-89.04,2.81-30.98,1.44-62.01-2.76-89.36,2.5-3.03,2.59-3.23,8.02-5.31,11.56,2.08,7.65,1.8,16.11,2.19,24.68,1.16,25.64,1.32,52.96,3.44,77.17,16.21,5.12,35.99,2.95,53.74,1.56,18.44-1.44,37.29-2.21,55.3-3.44,36.89-2.52,73.54-6.1,111.54-5.31,10.92-10.85,9.38-33.11,9.37-54.99Z"/>
            <path class="cls-5" d="m225.18,130.8c4.75-.37,12.32-.13,18.44.62,5.67.7,11.29-.68,16.87-.62,11.82.12,23.92,1.4,35.62,2.19,23.86,1.6,48.3,2.81,72.8,2.81s50.38-1,74.99.62c24.17,1.59,48.06,3.76,71.86,2.81,24.26-.97,48.4-1.76,72.49-3.12,24.26-1.37,48.6-2.81,72.48-2.81,12.47,0,24.99-1.97,36.87-.31,5.59.78,9.52,2.62,16.25,2.19,17.21-1.11,35.94-2.5,54.05-2.5,5.94,0,11.71-.16,17.5,1.25,5.53,1.35,11.28.35,16.87,0,12.22-.76,25.75-2.19,36.24-.94,32.12,3.83,44.24,31.81,45.93,67.49,1.1,23.35,1.64,48.28,2.81,72.8.58,12.31.86,24.54.62,36.55-.24,12.08,1.94,23.72,2.5,34.99,2.35,47.03,2.77,98.61,1.56,148.72-.62,25.88.22,51.18-4.68,70.93-4.83,19.42-17.57,33.49-39.06,36.24-11.69,1.5-24,1.01-35.93,1.88-11.74.85-23.39,1.86-34.99,2.81-23.2,1.9-46.6,4.84-69.67,5.94-24.3,1.16-48.72,1.19-73.11,2.5-23.89,1.28-47.76,2.47-71.86,3.44-36.75,1.48-74.01,1.12-110.92-.63-12.3-.58-24.56-.13-36.87-.62-49.42-1.97-99.4-.51-148.1-2.81-25.27-1.19-43.87-4.87-54.68-20.93-7.08-10.53-13.77-27.42-9.37-44.37,1.41-5.44.92-11.24.63-17.5-2.13-45.74-6.25-96.61-6.25-144.66s-2.51-97.78-6.25-144.66c-1.37-17.2-2.81-35.08-2.81-54.05,0-6.25-.81-12.31-.62-18.12.71-22.54,18.11-36.58,37.8-38.12Z"/>
            <path class="cls-7" d="m1111.89,347.01c11.57-1.95,22.22,12.01,17.81,23.43-3.18,8.23-14.65,13.28-23.12,9.37-4.82-2.22-13.06-10.43-10.62-19.06.62-2.19,3.54-3.96,5.63-6.56,3.1-3.87,5.22-6.33,10.31-7.18Zm7.5,18.12c.22-2.82-2.68-7.28-5.31-7.19-3.53.12-4.16,5.67-6.88,7.19,1.4,5.91,11.73,5.93,12.19,0Z"/>
            <path class="cls-7" d="m74.58,404.19c5.02-1.41,13.65,1.8,18.75,3.12,5.08,1.31,12.84,2.66,12.81,8.44-.01,2.14-1.61,4.81-3.75,5.31-3.08.71-5.98-1.3-8.75-2.19-2.77-.89-5.75-1.55-8.43-2.19-5.22-1.23-14.3-.86-14.69-6.87-.22-3.47,2.28-5.12,4.06-5.62Z"/>
            <path class="cls-7" d="m1053.46,425.44c5.74-.67,8.65,4.78,11.56,9.37,4.69,7.4,10.48,17.44,15.31,25.62,2.44,4.14,7.01,9.39,6.56,13.75-.86,8.33-17.47,7.35-28.12,7.19-5.14-.08-11.46-.32-16.87-.94-5.29-.6-11.55-.87-15.31-2.19-2.72-.95-6.7-4.66-6.87-7.5-.22-3.49,5.14-8.95,7.5-12.19,5.88-8.06,10.71-15.5,15.94-23.12,2.59-3.77,5.2-9.4,10.31-10Zm-18.75,42.8c11.71,1.34,24.74,2.56,37.81,1.56-6.05-10.4-11.49-21.41-18.43-30.93-6.15,9.89-13.77,19.97-19.37,29.37Z"/>
            <path class="cls-7" d="m82.4,432.93c5.74-.69,10.93-.26,10.31,5.94-.45,4.46-4.11,4.06-9.37,5-4.22.75-7.75,3.54-10.31,3.44-3.12-.12-5.25-2.54-5.31-5.31-.14-6.17,8.8-8.35,14.69-9.06Z"/>
            <path class="cls-7" d="m94.89,454.8c4.32-.88,8.25,1.33,7.19,6.25-.71,3.27-4.31,4.21-7.81,6.56-3.15,2.11-5.69,5.48-8.75,5.62-3.56.17-6.08-2.38-5.94-5.94.2-4.88,11.03-11.62,15.31-12.5Z"/>
          </g>
          <g>
            <path class="cls-7" d="m559.26,165.37c-17.27,6.2-45.5,4.23-62-6.54-8.73-5.7-17.92-15.74-18.38-30.53-.21-6.59-.09-17.91,6.54-18.69,2.49-.3,5.65,1.43,6.23,3.74.76,3.03-1.89,8.63-1.87,12.77.07,16.64,13.37,25.39,27.73,28.97,8.97,2.24,22.02,4.01,33.03,1.56,3.57-.79,5.86-3.44,10.91-2.8,5.57.71,10.94,9.53,14.96,12.15,9.21,6.02,25.09,9.49,38.32,12.15,4.55.92,9.6,2.3,14.33,2.18,4.94-.13,9.98-2.01,14.02-4.05,3.87-1.96,8.28-6.05,13.4-6.54,7.81-.74,19.14,3.11,26.17,4.68,8.4,1.87,17.39,3.72,25.23,5.3,16.33,3.28,33.05,9.61,51.72,9.66,13.76.04,26.85-3.39,38.01-6.23,11.84-3.02,22.77-7.05,34.58-9.66,12.34-2.71,23.59-4.02,38.94-5.3,3.24-.27,12.71-.93,21.18-.93s15.89-1.81,15.89,5.3c0,5.8-6.01,5.27-13.08,5.61-17.73.84-35.82,2.09-51.1,4.67-22.92,3.88-38.57,10.78-59.51,14.64-10.81,1.99-23.03,3.68-33.96,2.49-11.02-1.19-20.97-3.98-30.84-6.23-14.32-3.27-30.79-6.07-46.11-9.66-4.66-1.09-10.99-3.52-15.27-3.12-3.6.34-7.55,4.39-11.53,6.23-4.64,2.14-11.45,4.23-17.45,4.36-6.81.14-14.08-1.97-20.87-3.43-20.22-4.32-38.27-9.08-49.23-22.74Z"/>
            <path class="cls-7" d="m460.5,327.06c-9.39-12.04-23.04-22.16-41.13-24.3-9.52-1.13-19.82-1.87-29.29-3.43-.5-3.57-1.31-7.32-2.49-10.59-4.97-13.71-19.53-25.89-35.52-27.1-13.32-1.01-26.53.99-38.01,3.43-1.3-18.48-7.55-34.17-19-45.18-10.78-10.35-28.59-17.72-48.29-11.84-3.89,1.16-6.83,2.85-10.59,4.67-10.73-22.24-22.44-45.44-52.33-46.54v11.11c20.69.85,29.24,15.66,37.06,30.44,2.73,5.17,6.1,15.62,11.84,16.83,5.24,1.1,10.62-3.48,14.64-4.99,19.11-7.15,36.31,2.64,44.55,13.4,4.19,5.47,7.26,13.23,9.35,22.12,1.77,7.53.63,22.58,7.79,23.68,3.81.59,7.21-2.59,9.97-3.43,4.81-1.45,10.61-1.79,15.89-2.18,5.82-.43,11.89-.98,17.45-.31,10.26,1.23,21.39,10.65,24.61,19.32,1.49,4.02.89,9.27,3.12,13.4,3.02,5.59,14.69,5.99,23.37,6.86,9.22.92,19.73,1.25,26.17,4.05,6.59,2.86,12.59,7.85,17.45,12.46,4.96,4.71,9.44,9.61,11.22,18.38-16.87,5.14-36.13,4.46-55.15,4.36-18.72-.1-37.92-.68-56.39-1.56-18.93-.9-38.04,0-57.01,0s-38.4-.58-57.33-1.87c-16.26-1.11-32.47-1.66-48.59-2.14v11.04c17.41.66,34.76,1.39,51.7,2.63,38.85,2.83,81.82.48,122.13,2.18,20.15.85,39.89.94,61.38.94,9.97,0,20.19-.39,29.6-1.87,9.76-1.54,19.23-3.88,20.87-10.6,1.97-8.04-4.96-18.15-9.03-23.36Z"/>
            <path class="cls-7" d="m490.72,439.22c24.63,3,51.76,1.78,77.89,3.43,26.04,1.65,52.09,2.49,77.89,2.49,45.2,0,93.1-1.25,140.51-1.25,6.76,0,15.37-1.33,15.89,4.99.56,6.78-6.79,6.23-15.58,6.23-52.04,0-100.92,1.25-151.42,1.25-29.47,0-55.69-1.79-84.12-3.11-13.04-.61-27.76-.63-42.37-1.25-12.36-.52-32.6-.28-32.71-11.21-.07-7.1,7.6-11.26,13.4-14.34,13.17-6.97,26.81-7.39,45.49-9.35,8.24-.86,18.42-1.78,23.68-4.67,1.73-.95,3.71-4.1,4.99-5.92,4.4-6.27,8.78-12.52,14.02-17.76,19.99-19.99,50.03-27.73,89.73-27.73,3.32,0,7.47.48,10.28-.31,3.55-1,6.62-6.75,9.03-9.66,8.71-10.49,17.94-18.49,32.4-22.74,15.13-4.45,29.82-6.45,48.6-4.67,2.4.23,5.42.57,8.41.93,2.61.32,5.85,1.6,7.79,1.25,3.21-.59,6.68-9.28,8.72-13.39,7.35-14.87,16.2-28.25,28.98-37.08,8.33-5.76,19.01-10.22,29.91-14.02,10.67-3.72,23.04-7.35,37.08-8.1,7.42-.39,15.87-.63,16.2,5.61.43,8.04-10.01,5.18-18.07,5.92-21.54,1.96-39.71,8.68-55.15,17.76-16.01,9.42-23.2,24.16-32.09,40.81-2.64,4.96-5.93,11.61-11.22,13.09-4.73,1.32-11.43-.32-16.82-.94-5.75-.65-11.7-1.33-16.51-1.56-12.49-.59-22.2,2.05-31.47,4.67-15.16,4.3-22.15,12.25-31.16,23.37-2.91,3.59-5.46,7.17-9.35,8.73-5.42,2.16-12.84,1.56-19.32,1.56-33.45,0-62.71,7.36-79.13,24.92-3.25,3.47-6.08,7.71-9.03,11.84-2.76,3.86-5.72,9.47-9.66,12.15-9.3,6.35-25.72,6.73-39.25,7.79-14.29,1.12-27.34,3.14-36.45,10.28Z"/>
          </g>
        </g>
        <path class="cls-6" d="m1298.23,839.41h28.36v28.36h-28.36v-28.36Z"/>
        <path class="cls-9" d="m349.92,1206.9l55.62,160.79h-111.25l55.62-160.79Z"/>
        <path class="cls-5" d="m186.49,990.35s40.06-10.13,43.46-59.43c3.71-53.78-43.46-148.65-63.57-149.9-17.19-1.06-59.49,87.7-47.06,149.27,9.37,46.35,47.36,61.96,47.36,61.96l19.81-1.9Z"/>
        <path class="cls-5" d="m237.86,1172.22s41.14-4,51.91-52.23c11.75-52.6,8.97-150.26-7.62-165.3-10.11-9.18-114.97,59.44-117.79,145.22-1.56,47.26,53.63,71.22,53.63,71.22l19.88,1.09Z"/>
        <path class="cls-7" d="m161.11,993.16c2.58-.02,5.2.09,7.82.25,5.38-.46,10.78-1.58,15.43-3.04,18.94-5.93,33.66-18.3,41.75-36.56.57-1.28,1.29-2.26,2.11-3.01,2.47-7.39,3.96-14.88,4.1-21.63.47-21.44-6.98-42.22-13.55-62.35-6.59-20.19-14.19-39.87-25.51-57.93-1.4-2.24-1.71-4.43-1.27-6.39-4.44-4.7-8.51-7.47-11.83-7.68-17.19-1.06-59.49,87.69-47.06,149.27,4.8,23.76,17.12,39.42,27.99,49.06Z"/>
        <path class="cls-7" d="m288.54,1131.63c.24-16.76,6.09-33.15,6.53-49.97.41-15.91.91-30.73,4.26-46.09.08-10.61.65-21.29-1.71-31.68-1.58-6.98-3.92-13.88-5.01-20.96-.61-3.94-.52-8.54-2.81-11.89-.6-.87-1-1.73-1.26-2.58-26.42,7.59-107.9,69.77-110.38,145.26-.87,26.32,15.87,45.41,30.87,57.16,10.61-1.16,13.69,5.04,32.02-.21,6.87-3.93,13.67-8.1,20.47-12.09,11.02-6.47,19.88-15.14,27.17-25.13-.09-.57-.15-1.17-.14-1.81Z"/>
        <path class="cls-9" d="m166.68,996.93c-.59,0-1.19-.11-1.77-.35-1.64-.68-40.42-17.11-50.17-65.36-10.2-50.49,15.56-121.33,37.07-146.03,5.42-6.22,10.3-9.14,14.86-8.83,4.98.31,10.44,3.93,16.69,11.06,22.84,26.04,54.42,97.9,51.26,143.83-3.59,52.08-46.55,63.53-46.98,63.64-2.5.64-5.04-.88-5.68-3.39-.63-2.5.88-5.04,3.37-5.67,1.54-.4,36.84-10.1,39.96-55.22,2.96-42.96-27.66-112.74-48.96-137.02-6.41-7.3-9.66-7.85-10.24-7.89-.63-.03-3.11.91-7.23,5.64-17.98,20.65-44.91,88.74-34.95,138.04,8.77,43.4,44.2,58.41,44.55,58.56,2.39.98,3.53,3.71,2.55,6.1-.74,1.81-2.49,2.9-4.33,2.9Z"/>
        <path class="cls-9" d="m193.75,1300.65c-2.37,0-4.41-1.8-4.65-4.21-.19-1.88-18.75-189.82-19.65-308.93-.47-62.01-5.38-128.14-6.11-132.66-.56-2.38.81-4.81,3.18-5.54,2.47-.76,5.08.63,5.84,3.1.99,3.24,5.98,74.98,6.44,135.02.9,118.67,19.42,306.19,19.61,308.07.26,2.57-1.62,4.86-4.19,5.11-.16.02-.31.02-.47.02Z"/>
        <path class="cls-5" d="m153.14,1174.47s65.03-25.41,22.73-117.75c-39.64-86.51-108.79-128.65-116.14-125.86-7.35,2.8-44.9,156.12-13.08,210.28,35.51,60.46,87.81,40.2,87.81,40.2l18.68-6.87Z"/>
        <path class="cls-9" d="m237.85,1176.9c-2.38,0-4.41-1.81-4.65-4.22-.25-2.57,1.63-4.85,4.19-5.1,1.61-.17,37.96-4.47,47.81-48.6,11.75-52.6,8.26-146.08-5.82-160.45-3.53-.26-17.27,5.15-36.96,20.4-16.71,12.94-71.38,59.92-73.4,121.14-1.43,43.58,50.3,66.55,50.82,66.78,2.37,1.03,3.45,3.78,2.42,6.15-1.03,2.37-3.78,3.45-6.15,2.42-2.37-1.03-58.08-25.8-56.44-75.66,2.41-73.51,77.38-134.54,108.24-147.61,8.55-3.62,14.06-3.91,17.36-.92,19.76,17.91,20.07,120.43,9.05,169.78-11.37,50.95-55.57,55.82-56.02,55.86-.15.02-.31.02-.46.02Z"/>
        <path class="cls-9" d="m204.38,1348.88c-2.51,0-4.58-1.99-4.67-4.51-.02-.66-2.02-66.91,15-185,7.87-54.55,22.07-102.3,43.43-145.98,1.13-2.32,3.94-3.28,6.25-2.15,2.32,1.13,3.28,3.93,2.15,6.25-20.92,42.79-34.85,89.64-42.58,143.21-16.89,117.16-14.94,182.7-14.91,183.35.09,2.58-1.93,4.74-4.51,4.83-.05,0-.11,0-.16,0Z"/>
        <path class="cls-7" d="m92.24,1185.22c1.16,0,2.32,0,3.47-.02,22.65-.46,47.42-2.76,66.79-15.68,22.76-15.18,37.12-47.34,29.25-74.07-5.05-17.14-13.17-33.23-19.99-49.7-5.97-14.45-12.67-26.89-22.18-39.34-.69-.7-1.17-1.27-1.57-1.89-1.84-.57-3.56-1.76-4.9-3.72-5.75-8.41-14.94-13.3-19.41-22.87-.66-1.42-1-2.91-1.07-4.38-24.55-22.99-45.26-33.81-49.1-32.35-7.35,2.8-44.89,156.12-13.08,210.28,9.8,16.69,20.88,27.22,31.79,33.73Z"/>
        <path class="cls-3" d="m1477.22,547.67c0-23.19-18.87-42.06-42.07-42.06h-370.2c-23.2,0-42.07,18.87-42.07,42.06v746.79c0,23.2,18.88,42.07,42.07,42.07h370.2c23.2,0,42.07-18.87,42.07-42.07v-746.79Zm-14.36,688.83c0,28.35-23.07,51.42-51.42,51.42h-325.29c-28.35,0-51.42-23.06-51.42-51.42v-662.93c0-28.36,23.07-51.43,51.42-51.43h325.29c28.35,0,51.42,23.07,51.42,51.43v662.93Z"/>
        <path class="cls-9" d="m113.82,1189.13c-19.78,0-48.89-7.63-71.2-45.62-27.67-47.11-4.99-167.55,8.3-205.38,3.04-8.65,4.86-10.76,7.15-11.63,7.91-3.02,32.06,13.39,50.76,30.34,20.61,18.69,49.72,50.85,71.29,97.94,15.8,34.48,18.93,64.04,9.3,87.84-10.78,26.65-33.61,35.83-34.57,36.21-2.41.95-5.12-.25-6.05-2.65-.94-2.4.24-5.11,2.64-6.05.2-.08,20.2-8.26,29.39-31.18,8.54-21.3,5.44-48.31-9.2-80.27-37.24-81.28-97.91-119.64-109.73-123.02-9.36,17.51-39.81,154.43-11.2,203.12,32.97,56.13,80.11,38.96,82.1,38.2,2.41-.92,5.11.28,6.03,2.69.92,2.4-.27,5.1-2.67,6.03-.22.09-9.23,3.43-22.32,3.43Z"/>
        <path class="cls-9" d="m177.64,1344.07c-2.17,0-4.11-1.52-4.57-3.72-.23-1.09-22.76-109.46-36.39-163.98-13.61-54.43-42.56-138.34-42.85-139.19-.84-2.44.45-5.1,2.89-5.94,2.44-.85,5.1.45,5.94,2.89.29.84,29.38,85.14,43.09,139.97,13.67,54.71,36.24,163.26,36.47,164.35.52,2.53-1.1,5-3.63,5.53-.32.07-.64.1-.96.1Z"/>
        <g>
          <path class="cls-4" d="m1108.86,585.13h100.86c13.73,0,24.86,11.13,24.86,24.86v100.84c0,13.73-11.13,24.87-24.86,24.87h-100.86c-13.73,0-24.87-11.13-24.87-24.87v-100.84c0-13.73,11.13-24.86,24.87-24.86Z"/>
          <path class="cls-5" d="m1287.88,585.13h100.87c13.73,0,19.28,11.93,19.28,25.66l5.59,100.04c0,13.73-11.44,15.27-25.17,15.27l-95.11.93c-13.73,0-30.32-2.47-30.32-16.2v-100.84c0-13.73,11.13-24.86,24.87-24.86Z"/>
          <path class="cls-4" d="m1263.01,889.39v-100.84c0-13.73,11.13-24.87,24.87-24.87h100.87c13.73,0,24.86,11.13,24.86,24.87v100.84c0,13.73-11.13,24.86-24.86,24.86h-100.87l-24.87-24.86Z"/>
          <path class="cls-4" d="m1108.86,764.13h100.86c13.73,0,24.86,11.13,24.86,24.86v100.84c0,13.73-11.13,24.86-24.86,24.86h-100.86c-13.73,0-24.87-11.13-24.87-24.86v-100.84c0-13.73,11.13-24.86,24.87-24.86Z"/>
          <path class="cls-5" d="m1108.86,942.67h100.86c13.73,0,21.14,12.13,21.14,25.86v101.01c0,13.73-12.07,18.96-25.8,18.96l-96.21,4.73c-13.73,0-24.87-11.13-24.87-24.87v-100.84c0-13.73,11.13-24.86,24.87-24.86Z"/>
          <path class="cls-8" d="m1287.88,942.67h100.87c13.73,0,24.86,11.13,24.86,24.86v100.84c0,13.73-11.13,24.87-24.86,24.87h-100.87c-13.73,0-24.87-11.13-24.87-24.87v-100.84l24.87-24.86Z"/>
          <path class="cls-4" d="m1287.88,943.12h100.87c13.73,0,24.86,11.13,24.86,24.87v100.84c0,13.73-11.13,24.86-24.86,24.86h-100.87c-13.73,0-24.87-11.13-24.87-24.86v-100.84c0-13.73,11.13-24.87,24.87-24.87Z"/>
        </g>
        <g>
          <path class="cls-7" d="m1402.39,721.35c2.97-11.56,1.25-23.64,1.25-35.55,0-24.48-.17-48.43-3.74-70.48-.74-4.58-1.92-10.15-3.12-15.59-.99-4.46-1.91-12.7-4.05-14.34-2.63-2.02-11.35-1.02-15.9-.94-29.52.58-52.23,4.2-81.39,5.92-8.99.53-24.71,2-28.06,6.55-2.41,3.26-1.15,13.81-.31,20.58.9,7.33,2.21,15.37-4.68,15.28-6.01-.08-6.37-9.86-7.17-17.78-.98-9.73-.77-18.88,2.5-24.01,7.72-12.11,32.62-10.65,53.01-12.47,20.19-1.8,40-4.05,60.18-4.99,7.22-.34,23.1-1.38,28.69,2.81,6.62,4.95,8.74,22.37,10.6,32.43,4.97,26.84,4.68,49.73,4.68,81.39,0,15.12,3.03,36.89-7.48,41.47-3.78,1.65-10.61,1.14-17.46,1.25-19.62.3-33.79,2.51-53.01,2.81-11.35.17-24.28-.26-35.86-.94-15.29-.9-32.11-1.77-38.05-11.54-6.26-10.3-6.65-33.45-7.17-52.08-.22-7.77-1.45-13.43,4.68-13.72,9.3-.43,6.46,21.49,6.86,29.94.23,4.79.97,11.21,1.87,16.53.78,4.64,1.57,11.91,3.74,14.34,2.02,2.28,9.69,3.45,13.41,4.05,14.15,2.3,34.73,2.89,49.58,2.18,22.77-1.09,42.63-2.8,66.42-3.12Z"/>
          <path class="cls-5" d="m1213.41,598.48c-15.69-2.15-34.92-3.41-55.2-4.37-14.29-.67-28.8-.6-42.41-2.18-4.95-.58-9.59-1.89-13.41-1.25-4.4.74-5.52,6.29-10.6,5.61-5.27-.7-5.34-7.45-2.49-10.91,7.96-9.68,26.87-4.56,41.48-3.43,9.66.75,19.89.6,30.56.94,10.54.33,18.93,1.44,29.31,2.18,8.74.62,22.7.74,28.38,4.05,8.29,4.85,9.92,17.71,11.23,30.56,3.08,30.31,10.06,61.07,6.86,95.11-.68,7.28-1.98,15.02-5.93,18.71-6.05,5.66-19.5,6.81-30.87,7.48-12.31.73-26.12,0-37.42,0-12.4,0-23.41-.59-36.8-1.56-17.29-1.25-33.91-.77-39.6-13.1-3.13-6.77-3.15-18.46-4.05-27.44-2.45-24.51-4.68-46.77-4.68-74.22,0-6.32.97-9.94,5.62-9.98,8.11-.06,5.61,15.57,5.61,24.64,0,21.46,2.4,35.22,4.37,56.13.37,3.98,1.05,8.91,1.56,13.41.59,5.17.45,10.43,1.87,13.1,3.22,6.03,20.16,5.66,28.69,6.24,22.91,1.56,43.98,1.87,67.98,1.87,5.35,0,10.63-.33,16.22-1.25,4.49-.74,11.85-1.53,13.72-3.43,2.51-2.55,2.37-9.2,2.81-15.28.43-5.86.62-12.51.62-17.46,0-25.26-4.14-42.41-6.86-64.86-1.23-10.19-.94-21.21-6.55-29.31Z"/>
          <path class="cls-5" d="m1348.44,752.53c8.41-.4,19.87-.1,28.69.63,11.01.9,21.77,2.37,27.44,9.35,5.33,6.56,7.77,19.59,9.67,30.87,3.86,23.01,4.78,49.49,1.56,74.53-1.42,11.04-2.83,25.51-8.11,32.12-8.48,10.63-29.28,10.15-47.71,9.36-18.61-.8-36.42-.61-56.13-2.18-17.74-1.41-34.24-2.54-39.91-14.97-2.69-5.9-3.17-15.69-3.74-24.64-1.42-21.96-2.53-44.65-3.43-67.05-.22-5.54,1.53-8.64,5.3-8.73,7.34-.18,6.47,12.3,6.86,20.58.97,20.48,1.12,32.83,2.5,52.39.6,8.58.19,18.74,3.43,23.7,3.19,4.88,15.1,6.23,23.7,7.17,19.44,2.14,39.28,1.59,59.25,2.49,9.99.45,20.66,1.56,29.31,0,4.1-.74,10.35-3.09,12.16-5.61,1.83-2.55,2.78-9.08,3.74-14.34,5.67-31.06,4.8-68.96-2.81-97.3-1.18-4.4-2.89-10.46-5.3-12.47-4.88-4.05-18.61-4.33-27.13-4.68-18.56-.75-42.19.31-62.06.94-9.94.31-22,.81-27.76,4.05-1.8,1.01-3.76,3.6-4.99,5.61-1.2,1.97-1.79,4.61-5.61,4.68-6.33.11-6.15-6.36-3.74-10.6,2-3.53,5.44-7.63,8.42-9.36,8.17-4.73,22.31-5.24,35.55-5.61,14.32-.4,29.56-.4,40.85-.93Z"/>
          <path class="cls-5" d="m1214.35,777.48c-6.39-4.29-18.66-5.08-29.31-5.92-10.19-.81-21.5-.67-33.68-1.25-14.95-.71-34.82-2.44-50.21.31-5.33.95-11.11,3.06-11.85-3.12-1.21-10.16,21.08-9.34,29.63-9.35,16.35-.03,35.96.74,54.57,1.56,18.97.83,44.83,1.08,50.83,12.79,3.11,6.07,2.61,21.06,3.43,31.18,1.76,21.73,4.17,42.14,3.12,64.86-.48,10.22-1.81,21.44-5.3,29-2.37,5.13-7.86,12.19-13.1,14.97-6.59,3.49-19.82,4.9-29.31,5.3-22.41.95-40.61-4.38-62.37-5.93-14.95-1.06-30.15-.77-35.24-10.91-3.39-6.76-3.51-20.77-4.05-30.87-1.17-21.85-3.38-41.39-4.37-64.86-.36-8.51-3.29-28.72,5.61-28.38,8.3.32,4.88,19.11,5.3,28.38,1.07,23.45,2.71,39.95,4.37,62.37.34,4.6.35,10.34.94,15.9.37,3.48,1.22,11.33,3.12,13.41,3.38,3.71,20.68,3.6,26.82,4.05,9.99.73,18.98,1.86,27.76,3.12,13.66,1.96,27.72,3.31,42.1,1.25,4.73-.68,9.73-.77,13.1-2.18,3.58-1.5,7.84-7.3,9.35-10.6,3.53-7.72,3.68-17.82,4.05-27.44.41-10.45.1-20.63-.62-29.94-1.55-20.02-2.86-37.72-4.68-57.69Z"/>
          <path class="cls-7" d="m1127.34,930.91c12.84-.61,30.25-.62,44.91,0,14.12.59,31.46-2.85,42.41,1.87,11.77,5.07,15.48,20.49,17.46,36.8,2.86,23.49,1.56,47.7,1.56,75.16,0,10.06,1.81,28.22-1.87,35.86-5.34,11.07-23.83,10.62-37.42,13.72-4.43,1.01-10.13,1.95-10.6-3.74-.58-7,10.66-7.74,17.15-9.04,4.74-.95,18.06-1.73,20.58-5.61,1.92-2.97,1.25-12.61,1.25-17.15,0-19.09-.31-36.24-.31-54.88,0-12.51-.2-22.97-1.87-34.93-1.31-9.4-3.42-23.33-10.29-26.2-7.17-2.99-22.22-.38-30.87-.63-27.04-.75-51.96-.83-79.21.63-4.96.26-10.08.43-10.29-4.99-.28-6.93,8.67-5.91,15.59-6.24,7.34-.35,13.99-.25,21.83-.62Z"/>
          <path class="cls-5" d="m1397.09,953.67c-25.41-1.12-57.28-2.22-84.82-3.43-4.68-.21-9.79.23-14.66,0-4.85-.23-9.86-.83-14.35-.31-4.34.5-8.46,4.64-11.85.94-5.76-6.29,5.18-11.58,9.98-12.16,4.76-.57,10.2.2,15.59.31,31.79.63,60.52,1.31,92.62,2.81,5.06.24,10.71.59,13.41,2.18,3.91,2.31,5.33,8.32,7.17,14.03,5.12,15.85,5.98,36.04,6.86,56.13.56,12.63.76,28.95.31,41.16-.46,12.48-2.04,27.53-10.6,31.49-3.79,1.76-11.34,1.95-16.22,2.18-30.3,1.43-56.65,2.81-87.94,2.81-11.39,0-25.66.53-33.37-2.81-4.29-1.86-9.48-8.2-11.23-13.1-1.44-4.02-1.19-10.07-1.56-15.59-1.76-26.14-1.73-54.51,1.25-80.46.49-4.32,1.41-9.91,1.87-14.97.62-6.73,1.02-11.07,5.61-11.23,9.39-.32,4.85,18.59,4.05,25.57-2.91,25.51-3.19,51.92-1.87,79.52.42,8.92.73,17.25,6.55,19.96,3.11,1.44,9.73,1.26,15.28,1.56,16.03.86,33.46.43,48.96-.31,20.67-.98,43.65-1.48,63.62-3.43,4.25-7.73,4.68-18.66,4.68-29.63,0-32.86-.27-69.57-9.36-93.24Z"/>
        </g>
        <g>
          <path class="cls-10" d="m398.3,939.22h748.84c25.8,0,46.74,20.94,46.74,46.74v349.85c0,25.8-20.94,46.74-46.74,46.74H398.3c-25.8,0-46.74-20.94-46.74-46.74v-349.84c0-25.8,20.94-46.74,46.74-46.74Z"/>
          <path class="cls-9" d="m1147.14,1387.22H398.3c-28.35,0-51.42-23.06-51.42-51.41v-349.84c0-28.35,23.06-51.42,51.42-51.42h748.84c28.35,0,51.41,23.06,51.41,51.42v349.84c0,28.35-23.06,51.41-51.41,51.41Zm-748.84-443.32c-23.2,0-42.07,18.87-42.07,42.07v349.84c0,23.19,18.87,42.06,42.07,42.06h748.84c23.19,0,42.06-18.87,42.06-42.06v-349.84c0-23.2-18.87-42.07-42.06-42.07H398.3Z"/>
        </g>
        <g>
          <path class="cls-7" d="m808.47,1313.99c0-16.22,2.79-32.39,3.77-49.07,2.9-49.3,6.24-102.3,3.46-154.11-15.91.04-31.66,1.89-47.49,1.57-15.69-.31-31.18-1.14-46.86-1.89-31.06-1.48-62.27-2.62-93.41-4.09-31.85-1.51-63.9-.78-95.3-2.2-31.33-1.42-62.11-1.82-92.15-5.35-1.18,56.31-4.38,105.79-6.6,161.35-.31,7.81-1.4,17.49-2.2,25.79-.78,8.11.81,20.92-7.24,20.44-5.56-.33-4.82-6.4-4.4-12.27,2.7-38.37,4.44-79.62,6.29-118.89,1.58-33.39,2.83-67.63,2.83-104.73,0-5.21.01-11.44-.31-17.61-.31-5.89-1.22-12.81,1.26-15.1,2.37-2.19,10.2-1.57,15.73-1.57,46.17,0,90.56.1,134.93,1.26,55.09,1.44,104.09,5.98,162.6,5.98,12.82,0,26.89-.32,41.83-.32,6.16,0,13.13-.8,20.76-.32,5.83.37,15.49,1.24,17.61,3.46,2,2.09,1.89,10.34,1.89,16.36,0,18.53,1.09,35.77,1.89,52.52,2.29,48.19-.22,93.35-3.14,139.64-.67,10.63-.7,22.6-2.52,33.65-.76,4.59-1.29,10.53-1.57,16.67-.35,7.52,0,15.63-4.09,18.55-2.92,2.09-14.18,1.92-20.44,2.2-21.83.99-43.47,2.48-64.16,3.46-30.83,1.46-58.77.32-88.69.32-45.53,0-88.22-1.52-133.67.63-5.78.27-13.15.87-21.39,1.26-8.31.39-17.07,1.63-17.3-5.03-.23-6.85,9.22-5.98,16.04-6.29,21.36-.98,42.57-2.19,63.53-2.52,58.58-.9,117.16,2.92,174.55.31,28.5-1.29,56.25-2.83,83.98-4.09Zm-34.28-259.16c-13.84.64-28.04.38-41.83,0-96.94-2.7-192.37-9.66-292.81-7.24,1.28,12.24.34,26.71.63,39.94,75.28,7.62,156.42,5.4,234.63,9.12,30.53,1.45,61.56,4.4,93.1,4.4,15.73,0,31.43-1.45,47.18-1.26-.1-13.75-1.33-29.07-.94-44.35-13.21-2.12-26.7-1.25-39.94-.63Z"/>
          <path class="cls-7" d="m715.37,1138.49c5.67-1.43,16.44.1,23.28.32,15.89.5,28.94-.32,45.92-.32,6.69,0,17.71-1.8,17.61,5.66-.09,7.21-11.47,5.66-20.13,5.66-18.09,0-32.59.67-50.32,0-7.69-.29-19.95,1.23-20.76-5.03-.48-3.7,1.4-5.53,4.4-6.29Z"/>
          <path class="cls-7" d="m744.62,1164.28c6.21-1.65,17.08-.08,24.53,0,4.52.05,12.28-.02,17.3-.32,5.28-.31,9.33,1.04,8.81,6.29-.57,5.68-9.52,5.64-16.36,5.66-5.75.02-14.01-.63-21.39-.63-7.84,0-16.12.83-16.98-4.72-.56-3.6,1.16-5.51,4.09-6.29Z"/>
          <path class="cls-7" d="m717.89,1164.6c6.41-1.78,14.96-.96,15.1,5.03.04,1.92-1.18,4.52-3.46,5.35-2.71.98-9.93,1.05-12.58,0-3.8-1.5-4.87-8.76.94-10.38Z"/>
          <path class="cls-7" d="m790.22,1192.27c3.72-.02,6.91.53,7.23,4.72.62,7.92-10.6,6.56-18.24,6.92-16.95.81-31.18,1.18-48.75.63-8.14-.26-18.31.34-18.55-6.29-.27-7.14,7.44-5.38,14.78-5.03,21.66,1.03,43.65-.84,63.53-.94Z"/>
        </g>
        <g class="cls-1">
          <path class="cls-3" d="m291.13,922.87h948.27v90.02H291.13v-90.02Z"/>
        </g>
        <g>
          <path class="cls-5" d="m1050.36,961.35c6.64,0,12.02,5.37,12.02,11.99s-5.38,12.01-12.02,12.01-12.02-5.38-12.02-12.01,5.39-11.99,12.02-11.99Z"/>
          <path class="cls-5" d="m1094.95,961.35c6.64,0,12.03,5.37,12.03,11.99s-5.39,12.01-12.03,12.01-12.03-5.38-12.03-12.01,5.39-11.99,12.03-11.99Z"/>
          <path class="cls-5" d="m1137.26,961.35c6.64,0,12.02,5.37,12.02,11.99s-5.38,12.01-12.02,12.01-12.02-5.38-12.02-12.01,5.38-11.99,12.02-11.99Z"/>
        </g>
        <path class="cls-7" d="m883.46,1046.01h234.65c17.22,0,31.16,13.96,31.16,31.16v107.52c0,17.21-13.94,31.16-31.16,31.16h-234.65c-17.21,0-31.16-13.95-31.16-31.16v-107.52c0-17.2,13.95-31.16,31.16-31.16Z"/>
        <path class="cls-4" d="m1052.92,1233.55c31.93,0,57.81,25.88,57.81,57.81s-25.88,57.81-57.81,57.81-57.8-25.88-57.8-57.81,25.88-57.81,57.8-57.81Z"/>
        <path class="cls-10" d="m999.89,1092.11l39.74,68.86h-79.47l39.73-68.86Z"/>
        <path class="cls-5" d="m513.43,1238.39l-4.99,55.47s6.22,20.94,5.3,42.38c-.93,21.43-4.67,50.79-4.67,50.79l-224.99-1.56s3.05-39.38,31.48-52.35c28.42-12.96,69.8-23.06,69.8-23.06l14.03-26.48,8.72-60.15s-5.87-8.46-5.3-17.14c.58-8.68,2.41-42.87,8.72-47.99,6.31-5.13,6.86-9.97,6.86-9.97l23.68-168.27s-5.05,36.08-17.45,38.95c-12.41,2.86-17.14,3.11-17.14,3.11l-61.7,122.78s-99.32-10.58-131.81-29.29c-32.5-18.7-60.92-47.78-57.96-66.07,2.96-18.28,10.03-28.41,22.44-29.91,12.41-1.51,76.66,9.66,76.66,9.66l40.2-16.21,24.93-35.84s-6.72-18.62,3.12-39.26c9.83-20.63,28.36-40.52,28.36-40.52,0,0,76.89-155.67,91.93-178.86,15.03-23.2,38.85-29.61,54.22-34.6,15.37-4.98,80.09-213.14,80.09-213.14,0,0,24.8-54.72,48.29-70.12,23.5-15.39,28.05-19.94,28.05-19.94,0,0-29.03-5.63-29.29-27.42-.27-21.8,11.52-39.89,11.52-39.89,0,0-5.07-19.18-1.56-26.49,3.52-7.32,3.74-9.35,3.74-9.35l-12.78-23.37,4.05-15.27s-19.56,2.5-29.29-5.3c-9.73-7.81-13.97-11.49-9.66-14.66,4.3-3.15,28.98-14.95,28.98-14.95,0,0-12.81-21.05-5.61-22.12,7.2-1.09,37.6-1.27,54.22-10.29,16.62-9.01,20.63-15.93,39.27-12.16,18.63,3.77,67.75,7.83,80.71,45.51,12.96,37.68,13.29,52.51,2.19,72.6-11.11,20.09-27.43,33.35-27.43,33.35l-2.8,22.74s5.73,32.05,24.62,33.04c18.89.99,73.2-8.54,98.48-.31,25.27,8.22,56.7,8.73,84.45,86.32,27.75,77.59,72.17,177.45,68.24,196.94-3.92,19.5-11.73,34.67-24.62,43.01-21.13,13.68-43.94,9.04-43.94,9.04,0,0,21.78,76.87,24.93,119.34,3.16,42.48,1.61,95.49-58.59,131.2-60.2,35.71-182.3-19.01-182.3-19.01l-155.81,4.98-61.39,228.74s10.25,4.91,5.61,39.87c-5.44,41.03-26.8,31.48-26.8,31.48Z"/>
        <path class="cls-3" d="m696.32,260.07c3.62,0,6.54,2.93,6.54,6.54v6.87c0,3.61-2.93,6.54-6.54,6.54s-6.54-2.93-6.54-6.54v-6.87c0-3.61,2.93-6.54,6.54-6.54Z"/>
        <path class="cls-7" d="m697.7,720.36l124.65,35.21,162.04,8.73-8.73-56.1s63.05-14.55,57.34-61.08c-5.7-46.52-71.43-224.92-86.94-243.69-15.51-18.77-41.99-38.5-70.12-39.58-28.11-1.08-60.76,1.25-60.76,1.25,0,0-8.02,46.97-57.02,55.16-49,8.19-57.37,7.91-61.7-6.54-4.33-14.45,4.99-38.64,4.99-38.64,0,0-31.65,3.37-42.38,8.1-10.73,4.74-46.67,23.36-67.62,65.13-20.96,41.77-21.19,42.69-21.19,42.69l58.58,154.88,18.08-25.56s-7.17-5.37-1.25-29.3c5.92-23.91,25.56-49.54,25.56-49.54l-7.17-3.11s-25.27,20.37-34.28,18.07c-9.01-2.32-3.24-14.5,10.91-28.68,14.14-14.18,22.15-17.06,38.01-8.72,15.87,8.33,75.11,49.54,75.11,49.54l172.64,34.29s22.91,11.48,26.49,47.05c3.58,35.57-7.17,50.17-7.17,50.17l-175.76-58.27s-17.32,10.04-35.84-.31c-18.52-10.35-29.92-21.2-29.92-21.2l-26.17,14.33,8.41,35.23,11.22,50.48Z"/>
        <g>
          <path class="cls-5" d="m655.86,543l222.5-11.22,49.86,110.94-249.3-.63-23.05-99.09Z"/>
          <path class="cls-5" d="m858.73,495.94l105.64-50.79,34.28,80.71-108.13,41.76-31.78-71.68Z"/>
          <path class="cls-5" d="m571.1,484.72l81.65,37.09,17.76,75.73-52.35,23.99-71.36-73.85,24.3-62.95Z"/>
        </g>
        <path class="cls-3" d="m652.35,264.23c3.62,0,6.55,2.93,6.55,6.55v6.86c0,3.62-2.93,6.54-6.55,6.54s-6.54-2.93-6.54-6.54v-6.86c0-3.61,2.93-6.55,6.54-6.55Z"/>
        <path class="cls-5" d="m740.83,301.32s2.58,56.93-33.66,70.74c-36.23,13.8-44.99,11.63-58.59,6.22-13.59-5.4-28.39-10.86-27.73-29.6.66-18.73-5.45-33.2,19.32-38.95,24.78-5.73,51.83-11.21,58.27-8.73,6.45,2.49,19.32,11.23,19.32,11.23,0,0-.42-27.19,4.37-41.76,4.79-14.56,7.18-25.79,3.74-36.15-3.44-10.36-4.52-19.8-9.97-18.07-5.46,1.71-30.75,9.86-44.56,10.28-13.82.43-32.41-7.48-32.41-7.48l-9.04,19.32s-8.23,5.93-20.25,1.25c-12.03-4.68-21.87-14.37-21.19-19.02.68-4.64,30.54-19.93,30.54-19.93,0,0-7.94-10.4-4.67-15.28,3.27-4.87,35.42-4.33,45.81-11.84,10.39-7.51,28.83-15.3,38.33-15.9,9.5-.59,23.06,8.42,23.06,8.42,0,0,18.29,1.41,24,3.44,12.87,4.53,38.43,17.06,46.12,47.98,7.7,30.93,4.17,46.31.94,58.58-3.23,12.28-31.17,45.49-31.17,45.49l-20.57-20.25Z"/>
        <path class="cls-3" d="m756.36,308.22s2.58,56.93-33.65,70.74c-36.23,13.8-44.99,11.63-58.59,6.22-13.59-5.4-28.39-10.86-27.73-29.6.66-18.73-5.45-33.2,19.32-38.95,24.78-5.74,51.83-11.21,58.27-8.73,6.45,2.49,3.78,1.76,3.78,1.76,0,0,1.88-25.05,6.67-39.61,4.79-14.56,6.18-19.77,2.74-30.13-3.44-10.36-3.82-29.06-9.27-27.34-5.46,1.71-15.84,6.36-29.65,6.78-13.82.43-47.75.5-47.75.5l-13.32,30.16-5.79-8.75s-17.91-10.28-17.4-13.77c.68-4.64,30.54-19.93,30.54-19.93,0,0-7.94-10.4-4.67-15.28,3.27-4.87,35.42-4.33,45.81-11.84,10.39-7.51,28.83-15.3,38.33-15.9,9.5-.59,23.06,8.42,23.06,8.42,0,0,18.29,1.41,24,3.44,12.87,4.52,38.43,17.06,46.12,47.98,7.69,30.93,4.17,46.31.94,58.58-3.23,12.28-31.17,45.49-31.17,45.49l-20.57-20.25Z"/>
        <g>
          <path class="cls-3" d="m399.63,1276.96l107.82,1.88-1.87,17.75,3.42,21.82s-12.17,8.38-20.56,22.12c-8.39,13.75-18.08,27.43-18.08,27.43l-97.53.31s.65-20.43-8.73-30.22c-9.38-9.81-17.45-14.65-17.45-14.65l42.38-14.64,8.41-16.83,2.18-14.96Z"/>
          <path class="cls-3" d="m217.02,1024.87s10.73,9.2,13.39,30.22c2.67,21.02,3.12,43.32,3.12,43.32l89.75,23.68s10.48-9.81,21.81-15.27c11.33-5.46,24.93-7.79,24.93-7.79l22.75-44.24s-26.8,5.49-51.11-8.42c-24.31-13.9-33.26-21.88-35.84-27.11-2.57-5.23-4.05-13.09-4.05-13.09l-7.47,10.29-37.71,16.52-39.57-8.1Z"/>
        </g>
        <path class="cls-3" d="m343.82,921.96l87.57-187.29s22.17-63.47,92.24-51.1c70.08,12.37,317.55,76.65,317.55,76.65l143.66,4.06s19,84.34,14.02,107.2c-4.99,22.85-48.1,94.51-105.33,92.86-57.22-1.66-131.5-29.91-131.5-29.91l-165.16,4.98-59.21,225.62-117.17-15.27,23.05-184.16s-20.06,9.04-53.6-4.99c-33.54-14.04-46.12-38.64-46.12-38.64Z"/>
        <g>
          <path class="cls-3" d="m693.69,382.16c-16.56,5.47-31.49,4.75-44.24,10.9-12.37,5.98-22.16,14.38-31.47,23.68-18.04,18.04-27.73,44.58-38.64,71.35-18.44,45.26-36.86,91.35-54.84,137.73-2.32,5.99-4.52,18.6-10.9,17.44-7.1-1.29-.08-13.77,1.25-17.14,16.69-42.53,32.63-84.37,49.54-126.51,9.71-24.19,18.98-48.63,31.47-69.17,12.71-20.92,30.36-36.38,53.27-47.36-10.85-4.77-17.3-7.29-23.68-15.27-8.57-10.73-7.48-36.57-.31-48.29.87-1.41,2.04-3,3.43-4.68,1.2-1.45,3.27-3.55,3.42-4.67.33-2.27-1.63-6.43-1.87-9.34-.39-4.9.64-10.22,2.19-14.66,1.32-3.79,5.8-14.26,10.59-7.47,3.2,4.52-3.55,11.77-3.74,18.38-.09,3.12.88,5.09,1.25,8.41,3.02.31,6.34-1.76,9.97-1.86.69-1.38-1.25-2.29-1.87-3.12-5.13-6.94,6.25-11.96,8.73-17.44,4.34-9.59-2.01-22.01-8.73-24.62-3.42-1.32-8.91-1.58-15.27-1.25-4.78.25-11.96,1.57-13.39-2.18-1.5-3.91,1.73-6.36,2.18-9.97-12.1.49-18.92-4-26.17-9.97-4.12-3.4-11.43-9.13-11.53-14.33-.13-6.48,7.52-9.69,12.16-12.15,5.79-3.07,11.18-4.9,16.82-7.16-2.6-4.42-7.01-16.57-1.24-21.51,3.73-3.19,15.19-3.43,21.81-4.36,16.6-2.32,26.71-7.17,39.88-12.47,6.04-2.42,11.83-6.17,18.07-7.79,15.21-3.93,29.27,4.59,42.06,8.1,13.84,3.81,26.58,7.42,37.4,14.66,18.58,12.44,31.31,42.48,30.84,73.22-.49,32.07-15.84,53.91-35.83,68.23-.92,4.16-.57,9.6-2.18,13.09,4.01,9.65,6.08,21.11,14.33,25.87,6.88,3.96,20.69,3.17,31.16,2.8,11.41-.41,22.96-1.57,32.09-2.18,11.46-.76,22.79-1.57,32.72,0,28.42,4.49,53.07,17.06,67.93,35.21,10.35,12.63,17.3,28.28,23.99,44.57,19.84,48.23,39.02,98.11,56.4,149.86,2.61,7.79,5.87,16.58,8.72,25.55,2.76,8.68,6.49,18.33,7.17,27.11,1.54,20-7.94,36.3-17.13,46.11-10.49,11.18-24.75,17.38-43,20.25,6.83,38.66,14.23,76.74,19.63,116.22,1.42,10.32,3.07,20.86,3.43,30.54.4,10.64-1.98,20.67-4.36,29.59-4.9,18.41-13.25,30.59-24.61,43-20.73,22.65-50.59,41.64-95.97,39.58-37.03-1.69-67.24-11.99-96.91-21.82-4.12-1.36-8.7-3.95-12.46-4.35-6.37-.71-13.88.29-20.88.62-20.69.94-42.99-.55-63.56.31-28.18,1.2-56.15.13-84.13.94-18.81,67.18-35.92,140.33-53.91,209.7-1.16,4.49-3.59,10.63-3.42,14.01.11,2.29,3.61,5.32,4.67,8.1,3.13,8.16-.01,19.45-1.55,29.91-1.16,7.89-1.52,16.1-3.42,22.44-2.84,9.44-11.9,15.8-24.62,13.71-1.39,11.98-2.83,24.69-3.43,37.39-.63,13.27.41,25.49,2.8,37.38,2.15,10.67,3.57,22.83,2.8,37.39-.29,5.5-1.02,11.67-1.87,18.38-.61,4.83-1.2,15.32-4.36,16.83-5.77,2.75-20,.56-28.67.94-29.64,1.25-56.82.93-86.93,1.25-27.97.28-57.56.92-87.25.92-8.84,0-25.95,2.13-27.73-2.8-1.61-4.45,3.1-15.26,4.35-19,6.18-18.39,13.25-34.35,29.29-42.07,11.8-5.67,25.12-6.67,36.77-10.9,12.18-4.42,23.07-9.06,34.27-13.09,2.3-6.1,6.61-11.91,8.42-18.38,1.3-4.68,1.45-10.12,2.18-15.58,1.68-12.61,3.64-25.12,5.61-38.95.39-2.78,1.47-5.76,1.24-7.47-.36-2.78-3.98-5.99-4.99-9.04-2.31-6.99.4-18.1,1.87-27.74,2.32-15.26,2.23-29.87,13.4-35.83,6.65-45.9,13.03-92.08,19.94-137.73-.98-.51-2.54,1.85-3.74,3.12-3.79,4.04-9.26,7.6-17.14,7.79-18.23,36.17-35.65,72.49-53.9,109.68-2.28,4.64-5.6,13.6-9.35,14.95-3.71,1.34-14.15-.64-20.25-1.25-20.91-2.06-38.68-5.64-56.09-9.96-23.2-5.76-47.13-11.97-66.99-20.88-18.26-8.2-36.68-24.45-47.99-40.19-6.23-8.67-10.9-19.27-6.55-33.66,2.83-9.35,9.74-20.76,19.01-24.93,6.02-2.71,14.66-1.98,22.44-1.25,19.38,1.83,35.11,5,52.97,8.73,3.08.64,7.08,2.32,9.97,2.18,2.53-.14,5.99-2.62,8.72-3.74,6.43-2.65,11.11-4.58,17.45-7.17,2.93-1.2,6.59-1.9,8.73-3.43,2.35-1.66,4.22-5.99,6.23-9.02,6.16-9.34,12.25-18.91,18.07-27.74-6.55-12.56-.31-28.2,4.98-41.43,6.17-15.41,11.66-29.63,27.11-34.6,27.39-53.86,51.55-113.11,81.32-165.45,15.43-27.11,30.01-51.71,68.24-55.15,40.66-3.63,74.27,7.81,106.88,14.96,4.16-5.98,7-12.8,10.28-19.32,9.65-19.21,20.06-38.82,29.91-58.27-1.47-3.28-3.02-5.48-4.05-8.73-4.13-13.02,1.79-26.17,5.92-36.44,4.77-11.88,9.77-21.05,17.14-27.74-2.42.08-4.34,2.43-6.23,4.05-1.86,1.59-3.67,3.4-5.61,4.98-3.72,3.04-8.54,7.55-12.77,8.73-7.92,2.22-17.78-1.31-18.7-7.48-1.14-7.63,6.99-14.27,10.59-18.38,4.87-5.54,8.73-10.44,13.09-15.58-1.06-3.46-1.91-6.39-2.8-9.65-.81-2.99-.91-6.73-2.49-9.97-2.09-4.28-10.93-7.12-10.28-13.09.17-1.53,1.61-3.46,3.74-3.74,3.88-.52,5.99,3.19,8.11,5.3,2.13,2.15,5.11,3.59,6.54,6.54,2.93,6.05,2.48,12.92,4.98,18.07,4.65-2.53,10.32-6.01,17.14-4.66,8.29,1.63,16.73,7.8,24.31,12.46,18.97,11.65,36.39,24.13,54.52,37.39,3.48,2.55,7.31,6.24,10.59,7.48,4.89,1.84,11.72,2.3,17.76,3.42,40.95,7.61,82.96,14.64,124.01,22.43-11.58-25.24-26.29-54.27-39.57-80.69-1.64-3.27-8.09-14.06-.62-14.97,4.94-.59,6.78,6.16,8.72,10.29,13.71,29.15,29.67,58.46,43.31,87.55,6.36,1.05,13.7,2.53,22.43,4.05,6.24,1.08,18.86,1.35,18.7,7.48-.13,4.54-5.39,5.18-9.66,3.43,5.91,8.24,11.07,20.77,13.71,35.52,3.13,17.44,3.88,40.22-4.05,52.96,23.37,5.77,46.93-2.23,59.82-13.7,6.99-6.22,12.2-15.06,14.65-24.31,1.43-5.42,2.38-11.49,1.87-17.44-.45-5.19-2.52-10.09-4.05-15.27-11.64-39.43-26.85-78.07-40.51-114.67-6.75-18.1-13.95-37.57-21.5-56.39-7.43-18.52-14.9-37.33-25.55-52.04-10.39-14.37-27.62-25.07-46.73-30.84-10.22-3.08-21.47-5.54-33.96-4.99-11.8.52-23.96,1.71-36.15,2.49-10.74,22.36-27.83,44.11-56.09,53.9-13.73,4.76-33.52,5.56-48.91,3.43-8.52-1.2-14.65-2.74-19.32-8.11-4.12-4.73-7.47-11.64-7.17-20.24.22-6.23,2.53-11.03,4.36-16.83Zm70.1-72.28c15.06-10.98,28.01-31.11,28.98-55.47.76-19.1-3.83-36.29-11.53-50.47-3.53-6.5-7.89-12.79-13.71-17.15-11.6-8.65-28.58-12.95-44.24-17.75-7.28-2.24-17.67-6.11-25.87-5.29-6.28.62-12.67,4.96-19.01,7.47-6.03,2.41-12.1,4.96-18.07,7.17-12.87,4.78-25.66,7.03-41.75,8.73-1.65,8.16,7.63,10.72,6.86,17.13-.58,4.84-10.98,6.73-15.27,8.41-6.19,2.42-11.38,4.98-15.89,7.79,7.6,8.08,14.48,16.88,31.78,15.27,1.51-5.4,6.17-9.13,7.48-13.72.71-2.49-.35-4.8,1.86-6.22,3.1-1.99,7.41.14,9.66.62,10.86,2.3,22.59,3.1,33.34,1.55,12.21-1.75,20.99-2.78,30.85-6.54,3.69-1.4,5.75-3.19,9.97-2.49,6.96,1.16,10.35,14.85,12.15,23.06,2.07,9.5,2.57,21.16.31,30.22-2.13,8.56-4.99,16.76-5.92,28.36-.34,4.26-.68,10.72-.94,16.2-.32,6.68.52,12.43-4.36,12.78-3.91.28-7.8-4.35-10.6-6.24-3.22-2.17-7.74-5.07-11.21-5.91-10.62-2.6-22.51.87-33.02,2.49-4.01.61-8.41,1.48-12.78,2.48-4.11.95-9.52,1.58-12.46,3.12-2.74,1.44-6.49,6.79-7.79,9.04-4.19,7.24-6.13,25.94-1.55,35.21,1.26,2.55,3.48,4.69,5.3,6.23,9.79,8.28,25.72,12.38,41.44,10.28,14.52-1.95,28.92-7.43,37.71-15.27,12.23-10.93,17.66-27.86,19.94-46.43,1.53-12.49,3.01-30.85,3.73-46.11.11-2.29-.75-4.31.32-8.1,1.6-5.72,10.84-4.63,9.03,3.42,11.99-5.03,24.1,2.26,28.04,10.59,6.62,14.01-4.38,27.73-12.77,33.34-1.43.95-4.51,1.47-4.36,4.05,1.53.62,3.25-1.06,4.36-1.87Zm-45.49-32.72c1.83-8.85,5.35-16.76,5.91-25.24.86-12.68-3.13-23.29-6.85-33.02-.02-.2-.04-.38-.31-.31-19.76,6.52-50.13,13.96-74.78,6.54-4.1,7.33-8.32,14.53-11.22,23.05,4.86-.26,8.32-.72,12.77-.31,14.82,1.39,25.74,14.51,24,31.47-.59,5.72-3.56,10.54-6.55,14.02-.72.84-3.45,3.21-3.43,3.74.06,1.23,3.66,2.83,4.68,4.05,9.01-1.39,19.68-3.78,29.6-3.74,10.11.04,17.3,4.51,23.68,8.42.21-10.4.61-19.61,2.5-28.67Zm50.78,85.68c-9.46-9.46-13.46-24.62-16.83-40.2-1.03-4.79-3.59-12.57-2.18-16.5.9-2.52,4.85-3.67,7.79-5.62,5.67-3.74,12.64-10.23,11.22-19.63-1.24-8.22-14.56-12.81-21.19-6.22.23,2.51-.51,4.06-.32,6.54,3.28-1.03,16.42-9.59,16.2-.94-.08,3.56-4.48,4.55-7.48,5.91-3.54,1.62-6.27,3.14-9.35,4.37-1.62,32.14-6.68,60.83-24.61,76.64,1.77,2.96,5.29,6.21,5.61,11.22.31,4.97-2.73,11.77-7.17,11.84-2.75.05-4.59-1.83-4.67-4.36-.08-2.29,2.6-4.16,2.49-6.85-.13-3.05-2.45-3.49-3.42-6.24-3.54,1.97-7.02,4-10.91,5.61-.94,8.24-5.41,12.49-5.61,20.88-.15,6.47,2.78,13.54,7.17,16.2,3.61,2.2,10.62,2.98,15.89,3.43,20.05,1.74,38.29-1.79,49.86-8.1,18.56-10.13,30.45-23.5,38.01-40.19-16.51.4-32.41.29-40.51-7.79Zm180.41,311.9c2.08-25.04-4.58-50.83-16.2-62.94-7.22-7.51-18.34-7.98-30.85-10.29-33.61-6.18-67.74-12.15-101.26-18.38-13.89-2.58-27.54-6.3-40.51-7.48-1.24-.11-3.1.26-4.36,0-2.96-.59-7.66-5.4-10.91-7.79-21.73-16-43.08-31.59-67.3-45.17-4.32-2.43-10.67-6.47-14.96-4.99-8.41,2.9-14.13,10-19.94,16.83-5.05,5.93-10.62,11.7-13.09,17.14,7.44,1.97,11.64-3.55,16.83-7.79,2.23-1.82,4.67-3.75,7.17-5.93,2.53-2.2,5.04-5.17,7.79-5.3,4.43-.19,5.75,3.11,9.04,4.68,2.35-2.29,13.31-8.78,13.09,0-.11,4.31-8.21,8.23-11.84,11.21-9.44,7.76-13.71,15.9-18.39,28.05-3.51,9.11-6.69,17.16-4.67,28.04,5.45-8.97,9.05-18.99,16.52-28.35,3.08-3.87,6.69-7.31,10.9-11.53,2.37-2.37,8.18-10.07,12.78-9.67,2.18.19,4.01,2.65,4.05,4.37.1,4.2-8.53,10.08-10.91,12.46-4.16,4.16-8.36,8.15-11.22,12.16-6.95,9.73-10.77,20.19-16.2,30.53,2.23,3.27,4.67,6.34,7.79,8.73,4.87-9.53,8.67-19.35,16.83-28.05,3.46-3.68,6.95-6.79,11.84-10.6,2.73-2.12,9.1-9.1,14.02-8.41,2.17.3,3.73,2.4,3.74,4.36.01,2.8-2.94,4.47-4.99,5.93-6.84,4.84-13.54,9.86-18.38,15.26-6.1,6.8-10.43,16.43-14.34,24.62-.47.99-1.48,2.29-.94,3.43,4.4,2.06,9.1-1.34,12.78-3.74,7.16-4.68,13.52-11.14,19.94-16.83,3.12-2.76,6.65-8.15,10.91-7.79,2.49.21,4.11,2.5,4.05,4.68-.15,5.83-8.43,6.81-10.29,11.84,11.24,5.68,20.23,14.72,32.72,18.38,4.89,1.43,9.76,1.17,14.64.92,4.71-.22,10.35-1.64,15.58-.92,3.09.43,6.65,2.46,10.29,3.74,52.81,18.59,106.74,38.22,161.09,53.9,5.85-4.04,6.56-12.02,7.17-19.32Zm-265.47-38.01c6.74,27.84,14.32,54.85,20.88,82.87,35.38,9.01,72.6,19.41,108.11,28.67,5.26,1.38,10.7,3.54,15.58,4.06,12.27,1.31,25.02.94,37.39,1.24,37.85.91,74.06,3.2,111.86,4.06-2.5-16.72-5.94-32.5-8.72-48.92-2.42,0-5.36.09-8.1-.31-16.74-2.43-33.38-8.64-49.86-13.72-44.51-13.69-86.7-29.65-129.93-44.86-4.24-1.49-8.75-3.74-12.15-4.05-3.68-.33-7.05.79-10.29.94-13.11.59-20.69-1.05-29.29-5.29-10.29-5.09-18.88-10.57-28.66-17.46-5.36,4.51-10.93,8.82-16.83,12.78Zm-33.65-12.15c-12.02,24.01-24.28,47.8-36.46,71.65,27.11,6.44,54.3,14.47,81.02,20.26-6.77-25.22-13.14-50.84-19.63-76.33-13.42-.09-17.13-9.89-24.93-15.58Zm214.68,138.34c-5.3-.21-12.5-1.62-16.51-.63-2.55.63-2.55,2.96-5.92,3.11-2.81.14-6.48-1.46-10.28-2.48-10.56-2.85-21.06-5.35-31.16-8.11-69.67-18.99-135.75-37.05-206.27-53.9-28.31-6.76-57.29-14.99-90.98-13.4-15.91.74-28.5,4.6-38.01,12.15-9.08,7.22-14.74,16.78-21.5,27.42-6.4,10.06-12.3,20.3-17.76,31.16-21.96,43.68-42.92,88.09-63.88,132.11-5.31,11.14-11.59,22.11-14.96,34.27,9.38,12.34,23.54,21.37,38.95,28.67,14.15,6.71,34.06,14.83,54.22,9.67,2.47-12.87,3.92-25.97,6.23-38.64,2.31-12.66,4.11-25.55,8.41-36.46,8.51-21.58,24.47-35.16,46.73-43-4.44-3.01-16.06-2.08-14.95-9.65.6-4.14,5.28-3.52,8.41-2.49,10.29,3.37,20.15,7.51,28.66,10.59,90.16,32.62,178.58,65.95,269.83,96.59,13.15,4.42,26.4,9.23,40.51,11.84,14.69,2.72,29.94,4.81,46.73,5.61,33.78,1.62,57.53-11.98,75.72-28.35,18.79-16.92,32.61-36.4,34.89-69.8.54-7.94-.85-16.4-1.87-24.29-3.08-24.03-6.71-44.68-10.59-67.93-37.06-1.35-77.13-2.65-114.67-4.05Zm-319.37,98.14c-9.44-3.42-18.67-7.81-28.04-10.28-.43-.12-.85.22-1.25.31-13.99,3.3-24.27,7.3-33.65,14.96-8.78,7.17-15.51,16.33-19.63,28.98-3.94,12.09-6.25,26.2-8.41,40.19-10.9,70.43-20.66,143.42-30.85,212.8,36.43,4.61,72.57,9.49,108.74,14.35,18.4-70.87,35.95-144.83,54.84-215.93,1.18-4.46,2.95-11.61,5.3-12.78,3.52-1.75,12.24-.62,18.07-.62,44.28,0,87.96-.97,130.55-1.55-65.3-22.68-131.14-47.02-195.68-70.42Zm-221.85,93.79c-.79,3.53-1.95,9.53-1.25,13.08,1.06,5.39,9.16,12.83,14.33,17.13,6.27,5.22,12.67,9.3,19.01,12.77,14.97,8.22,29.7,15.03,47.36,16.21,5.22.35,11.59-.05,14.96-1.25,6.96-2.48,12.53-13.57,15.58-19.63,1.3-2.58,3.28-5.22,4.05-7.48,1.31-3.84.59-7.79,1.87-12.46-13.19,2.51-26.93-.47-38.64-4.05-27.66-8.5-51.59-24.17-64.82-45.49-.02-.2-.04-.37-.31-.32-4.21,8.73-9.62,20.11-12.15,31.48Zm-2.49,28.65c-1.97,3.59-4.44,6.95-7.17,11.22-3.66,5.72-8.25,9.59-5.61,17.44,1.61,4.81,7.7,10.92,12.15,14.96,14.99,13.65,45.34,30.01,70.42,19.63,3.68-7.85,7.64-15.42,10.91-23.68-35.43-4.67-60.3-19.89-80.7-39.58Zm10.28,63.26c-12.81-7.58-24.48-17.46-31.47-29.6-.02-.18-.04-.36-.31-.31-2.12,3.45-7.29,5-11.84,6.85-6.81,2.79-13.56,5.36-20.25,8.1-3.74,1.55-7.33,3.86-10.29,4.07-4.63.31-10.31-1.78-15.27-2.82-5.03-1.04-9.94-2.37-15.27-3.11,9.51,14.29,16.57,36.84,12.46,63.25,23.82,6.63,48.93,13.12,73.22,19.64,3.19.85,8.38,3.15,10.59,2.8,1.02-.17,3.53-2.56,4.99-3.74,12.09-9.81,24.47-16.31,41.13-20.88,4.98-10.6,11.31-21.51,15.27-32.1-21.72,3.15-38.94-3.83-52.97-12.15Zm2.49,72.29c-2.57,2.06-6.07,5.89-9.04,6.23-3.32.39-8.1-1.67-12.46-2.8-21.18-5.5-39.32-10.67-60.13-16.21-5.75-1.52-20.8-3.44-22.43-8.1-.86-2.42.04-6.57.3-9.96.3-3.74.58-7.61.63-10.59.25-16.35-2.85-25.71-8.42-36.15-1.56-2.95-5.71-12.21-8.72-13.72-1.7-.85-5.09-.85-7.79-1.23-7.21-1.07-18.56-3.06-25.86-2.18-7.53.9-12.49,6.23-15.89,12.46-2.71,4.95-5.16,12.07-4.67,18.7.75,10.13,8.65,17.41,14.64,23.99,5.76,6.32,11.06,11.28,17.13,15.89,13.16,9.97,27.81,15.79,44.87,21.19,36.28,11.48,68.3,19.03,109.68,22.12,5.86-11.9,11.89-23.63,17.45-35.83-11.52,3.12-20.66,9.31-29.29,16.2Zm79.76,44.55c-2.11,4.58-2.91,15.32-4.05,23.69-1.23,8.97-4.17,18.82-1.56,24.62,2.61,5.79,8.99,5.73,17.14,6.85,28.57,3.9,55.84,7.28,84.75,11.21,5.14.71,11.19,2.03,14.33,1.25,7.29-1.81,7.8-9.1,9.04-17.14,1.28-8.26,2.21-15.7,3.43-23.99.64-4.34,1.66-9.02.62-12.16-2.2-6.65-9.19-6.7-17.14-7.79-14.87-2.02-28.67-3.78-42.06-5.61-15.17-2.07-27.68-3.75-41.75-5.6-4.74-.63-11.22-1.88-14.96-1.25-3.43.58-6.38,2.87-7.79,5.91Zm-7.17,105.63h97.53c.9-10,1.82-19.98,2.49-30.22-31.12-4.31-62.49-8.33-93.78-12.46-2.63,13.66-4.35,28.26-6.23,42.68Zm-1.56,10.59c-.57,8.13-3.7,12.46-6.54,18.71-1.59,3.49-2.89,8.95-5.3,11.21-1.76,1.64-5.66,2.35-8.42,3.43-9.11,3.57-17.64,7.08-26.17,10.29,9.95,9.47,16,25.54,21.81,40.2,29.68-.24,59.21-.62,88.49-1.25,7.22-14.27,17.01-25.62,27.1-37.4,2.03-2.36,9.25-9.1,9.66-12.15.26-1.95-.88-5.27-1.24-7.79-1.26-8.6-1.47-16.57-.93-26.17h-98.15c-.36.05-.34.49-.31.92Zm102.82,45.5c-9.06,9.86-18.83,21.5-26.49,34.59-2.3,3.93-5.45,10.58-8.41,11.53-2.77.87-7.59.41-11.84.62-4.23.21-8.83,0-12.47,0-17.8,0-31.07.63-49.23.63-5.34,0-20.1,1.94-24.3-.32-1.96-1.06-2.74-4.64-4.05-7.79-4.79-11.52-9.22-23.34-16.52-31.47-1.98-2.2-3.99-4.56-6.54-6.24-15.27,4-30.1,5.57-38.94,15.58-8.97,10.18-12.27,24.44-17.14,39.26,71.26-.93,142.65-1.72,214.06-2.48,2.1-16.08,5.57-36.96,1.87-53.91Z"/>
          <path class="cls-3" d="m692.13,240.08c1.89-.22,5.63-.31,8.1.31,4.81,1.21,14.19,4.75,14.02,9.67-.07,2.03-1.45,4.07-3.74,4.35-4.7.58-8.18-4.58-13.4-5.3-4.49-.62-8.31.8-11.22,1.88-3.86,1.41-13.37,6.25-13.09-1.57.16-4.5,8.54-7.16,13.09-8.41,2.18-.59,3.84-.67,6.23-.94Z"/>
          <path class="cls-3" d="m688.39,309.56c2.78-.71,5.6.59,5.91,3.44.55,4.96-6.72,10.1-11.52,11.84-3.97,1.44-21.2,4.16-17.14-5.3,1.7-3.97,10.63-1.64,15.27-4.05,4.37-2.27,3.46-4.9,7.48-5.93Z"/>
        </g>
        <path class="cls-7" d="m764.45,241.27c17.3,0,31.53,17.34,31.79,38.75.26,21.39-13.55,38.75-30.84,38.75s-31.53-17.35-31.79-38.75c-.26-21.4,13.55-38.75,30.84-38.75Z"/>
        <path class="cls-7" d="m685.18,160.03c-3.62.69,44.34-7.24,64.26,44.96,11.97,31.37,5.24,48.22,5.24,48.22l12.46-.63s.19-29.49-5.95-56.51c-6.87-30.27-43.58-37.52-43.6-37.6l-32.41,1.55Z"/>
        <g>
          <path class="cls-5" d="m367.64,670.19h395.5c8.61,0,15.59,6.97,15.59,15.58v18.69c0,8.61-6.98,15.58-15.59,15.58h-395.5c-8.61,0-15.58-6.97-15.58-15.58v-18.69c0-8.61,6.97-15.58,15.58-15.58Z"/>
          <path class="cls-9" d="m763.14,724.71h-395.5c-11.17,0-20.26-9.08-20.26-20.25v-18.69c0-11.17,9.09-20.26,20.26-20.26h395.5c11.17,0,20.26,9.09,20.26,20.26v18.69c0,11.17-9.09,20.25-20.26,20.25Zm-395.5-49.85c-6.01,0-10.91,4.89-10.91,10.91v18.69c0,6.01,4.89,10.9,10.91,10.9h395.5c6.02,0,10.91-4.89,10.91-10.9v-18.69c0-6.01-4.89-10.91-10.91-10.91h-395.5Z"/>
        </g>
        <g>
          <path class="cls-5" d="m272.08,483.21h312.64c8.61,0,17.86,5.91,20.67,13.2l67.51,175.24c2.81,7.29-9.14,23.36-17.75,23.36h-312.6c-8.6,0-17.86-5.9-20.67-13.19l-67.5-175.14c-2.8-7.28,9.08-23.47,17.69-23.47Z"/>
          <path class="cls-9" d="m655.15,699.69h-312.6c-10.54,0-21.54-7.11-25.03-16.18l-67.5-175.14c-2.55-6.62,2.16-14.59,4.3-17.72,4.02-5.85,10.79-12.11,17.75-12.11h312.64c10.54,0,21.53,7.11,25.03,16.19l67.51,175.24c2.53,6.57-2.12,14.45-4.24,17.54-4.04,5.89-10.85,12.17-17.87,12.17Zm-383.07-211.8c-2.22,0-6.58,3.01-10.04,8.05-3,4.36-3.73,7.93-3.29,9.06l67.5,175.14c2.13,5.52,9.6,10.19,16.31,10.19h312.6c2.26,0,6.68-3.03,10.16-8.11,2.94-4.28,3.65-7.77,3.22-8.89l-67.51-175.24c-2.13-5.53-9.6-10.21-16.3-10.21h-312.64Z"/>
        </g>
        <g>
          <path class="cls-3" d="m417.05,766.25s32.1-84.97,86.08-83.16c53.97,1.83,212.22,44.34,212.22,44.34l-68.79,25.25-229.51,14.94v-1.36Z"/>
          <path class="cls-3" d="m604.26,693.75c-32.61-7.15-66.22-18.6-106.88-14.96-38.23,3.43-52.81,28.04-68.24,55.15-16.24,28.55-30.81,59.17-45.14,89.83h10.53c10.55-21.93,21.21-43.83,32.12-65.52,5.46-10.86,11.36-21.1,17.76-31.16,6.76-10.65,12.42-20.21,21.5-27.42,9.51-7.54,22.1-11.4,38.01-12.15,33.69-1.6,62.68,6.63,90.98,13.4,29.82,7.12,109.4,27.89,138.23,35.42l8.32-7.17c-22.73-5.4-104.59-27.48-127.54-32.94-4.67-1.04-6.46-1.71-9.65-2.48Z"/>
          <path class="cls-3" d="m663.15,517.7c4.29-1.48,10.64,2.56,14.96,4.99,24.22,13.57,45.57,29.17,67.3,45.17,3.24,2.39,7.95,7.2,10.91,7.79,1.26.26,3.12-.11,4.36,0,12.97,1.18,26.62,4.9,40.51,7.48,12.74,2.37,25.56,4.69,38.41,7.02v-9.59c-21.32-3.78-42.62-7.55-63.65-11.45-6.05-1.12-12.88-1.58-17.76-3.42-3.28-1.25-7.12-4.94-10.59-7.48-18.14-13.26-35.55-25.75-54.52-37.39-7.58-4.65-16.02-10.82-24.31-12.46-6.81-1.35-12.49,2.13-17.14,4.66-2.51-5.15-2.05-12.02-4.98-18.07-.61-1.26-1.51-2.25-2.5-3.14h-14.08c2.57,3,7.06,5.23,8.48,8.13,1.59,3.24,1.68,6.98,2.49,9.97.89,3.26,1.74,6.2,2.8,9.65-4.36,5.14-8.22,10.04-13.09,15.58-3.61,4.11-11.73,10.75-10.59,18.38.92,6.17,10.78,9.71,18.7,7.48,4.24-1.18,9.05-5.69,12.77-8.73,1.94-1.58,3.75-3.39,5.61-4.98,1.89-1.62,3.81-3.97,6.23-4.05-7.36,6.68-12.37,15.86-17.14,27.74-4.13,10.27-10.05,23.42-5.92,36.44,1.03,3.25,2.58,5.45,4.05,8.73,2.76,3.19,3.7,6.14,5.92,8.42,7.8,5.69,11.51,15.49,24.93,15.58.53,2.09,1.06,4.19,1.59,6.28.17-.22.33-.43.5-.66,2.17-2.16,4.83-3.74,7.71-4.63-.36-1.48-.72-2.95-1.09-4.43,5.9-3.96,11.47-8.27,16.83-12.78,9.77,6.89,18.37,12.37,28.66,17.46,8.6,4.24,16.18,5.89,29.29,5.29,3.24-.15,6.6-1.27,10.29-.94,3.4.31,7.91,2.56,12.15,4.05,19.56,6.89,38.9,13.92,58.35,20.82v-9.91c-19.58-6.84-39.04-13.78-58.35-20.57-3.64-1.29-7.2-3.32-10.29-3.74-5.22-.72-10.87.71-15.58.92-4.89.25-9.75.5-14.64-.92-12.49-3.67-21.48-12.7-32.72-18.38,1.85-5.03,10.13-6.01,10.29-11.84.05-2.19-1.56-4.47-4.05-4.68-4.26-.36-7.79,5.03-10.91,7.79-6.42,5.68-12.78,12.15-19.94,16.83-3.68,2.4-8.38,5.8-12.78,3.74-.54-1.14.46-2.44.94-3.43,3.9-8.19,8.23-17.82,14.34-24.62,4.85-5.4,11.54-10.42,18.38-15.26,2.05-1.45,5-3.12,4.99-5.93-.01-1.95-1.56-4.06-3.74-4.36-4.92-.69-11.29,6.29-14.02,8.41-4.89,3.8-8.38,6.92-11.84,10.6-8.16,8.7-11.96,18.52-16.83,28.05-3.12-2.39-5.55-5.46-7.79-8.73,5.43-10.34,9.25-20.8,16.2-30.53,2.86-4.01,7.06-7.99,11.22-12.16,2.38-2.38,11-8.25,10.91-12.46-.04-1.72-1.87-4.18-4.05-4.37-4.6-.4-10.41,7.3-12.78,9.67-4.21,4.21-7.82,7.66-10.9,11.53-7.47,9.36-11.07,19.37-16.52,28.35-2.02-10.88,1.17-18.92,4.67-28.04,4.68-12.15,8.95-20.28,18.39-28.05,3.63-2.98,11.73-6.9,11.84-11.21.22-8.78-10.74-2.29-13.09,0-3.29-1.57-4.61-4.87-9.04-4.68-2.75.13-5.26,3.1-7.79,5.3-2.49,2.17-4.93,4.1-7.17,5.93-5.19,4.24-9.39,9.76-16.83,7.79,2.47-5.44,8.04-11.21,13.09-17.14,5.81-6.83,11.54-13.93,19.94-16.83Z"/>
        </g>
        <path class="cls-5" d="m688.31,317.58c2.75-.7,5.56.58,5.87,3.4.54,4.91-6.66,10.01-11.43,11.73-3.93,1.42-21.01,4.13-16.98-5.25,1.69-3.93,10.53-1.62,15.13-4.01,4.33-2.26,3.43-4.85,7.41-5.87Z"/>
        <path class="cls-3" d="m892.52,1043.21c19.42-1.66,43.08-.31,63.74-.31s41.63.4,62.8.62c19.88.21,39.64,3.11,60.32,3.11s47.2-.03,58.45,9.02c7.55,6.07,12.54,19.43,14.92,31.09,1.32,6.46,2.14,13.25,2.8,20.21.68,7.21.27,14.42.62,22.39.6,13.66,1.15,28.94.62,44.15-.61,17.52-1.61,34.52-13.99,39.18-8.47,3.18-22.33,1.87-36.06,1.87-26.42,0-48.47-.33-73.69,1.24-12.27.76-25.38,1.25-36.37,1.25-24.42,0-49.68,1.03-75.55,0-22.97-.92-54.02,2.36-64.36-10.88-11.59-14.83-8.9-49.17-10.88-75.24-.55-7.18-4.28-21.88,4.04-22.08,7.3-.18,6.74,14.22,7.15,20.21.64,9.38,1.07,17.6,1.24,26.12.3,14.31.28,40.44,9.33,46.01,6.68,4.12,19.31,3.49,31.09,4.04,33.98,1.6,71.01.62,104.78.62,23,0,44.52-2.49,67.78-2.49,17.1,0,34.36.19,52.54,0,5.66-.06,13.23.02,15.86-1.55,6.28-3.77,6.22-23.85,6.22-33.89,0-23.99.14-54.8-3.73-75.86-2.17-11.8-5.68-23.94-12.75-28.61-5.03-3.32-16.47-4.43-25.81-4.97-10.08-.59-20.67-.56-29.54-.94-9.93-.42-19.47-1.19-28.91-1.86-39.56-2.83-81-1.56-120.94-1.56-9.96,0-20.34-.71-30.47,0-4.79.34-9.8,1.78-15.54,2.49-5.87.72-11.06,1.26-13.68,4.04-2.27,2.41-3.72,9.45-4.35,13.68-.84,5.62.71,12.39-5.91,12.44-7.03.05-6.02-9.61-4.66-16.17,2.71-13.09,5.76-20.67,18.34-23.94,3.52-.91,7.88-.9,12.12-1.56,4.4-.67,8.38-1.52,12.44-1.86Z"/>
        <g>
          <path class="cls-3" d="m126.83,1275.32h136.18c5.17,0,9.35,4.18,9.35,9.34l-15.27,96.6c0,5.16-3.35,9.34-7.49,9.34h-109.05c-4.14,0-7.49-4.19-7.49-9.34l-15.58-96.6c0-5.17,4.19-9.34,9.34-9.34Z"/>
          <path class="cls-9" d="m249.61,1395.29h-109.05c-6.59,0-11.97-6.07-12.16-13.61l-15.53-96.27c-.04-.25-.06-.49-.06-.74,0-7.73,6.29-14.02,14.02-14.02h136.18c7.74,0,14.03,6.29,14.03,14.02,0,.24-.02.49-.06.73l-15.22,96.27c-.18,7.55-5.57,13.62-12.16,13.62Zm-127.43-110.94l15.51,96.17c.04.25.06.5.06.74,0,2.67,1.48,4.67,2.81,4.67h109.05c1.33,0,2.81-2,2.81-4.67,0-.24.02-.49.06-.73l15.2-96.18c-.16-2.43-2.19-4.36-4.67-4.36H126.83c-2.47,0-4.5,1.93-4.66,4.36Z"/>
        </g>
        <g>
          <path class="cls-3" d="m115.7,1252.41h157.36c4.64,0,8.41,4.18,8.41,9.35l9.66,25.86c0,5.17-4.18,9.35-9.35,9.35H106.97c-5.17,0-9.35-4.18-9.35-9.35l9.66-25.86c0-5.17,3.77-9.35,8.42-9.35Z"/>
          <path class="cls-9" d="m281.79,1301.64H106.97c-7.73,0-14.03-6.29-14.03-14.02,0-.56.1-1.11.3-1.64l9.39-25.14c.44-7.31,6.13-13.1,13.07-13.1h157.36c6.93,0,12.62,5.8,13.06,13.1l9.39,25.14c.2.52.3,1.08.3,1.64,0,7.73-6.29,14.02-14.02,14.02Zm-179.44-13.32c.34,2.24,2.29,3.97,4.62,3.97h174.82c2.34,0,4.28-1.73,4.62-3.97l-9.31-24.93c-.2-.52-.3-1.08-.3-1.64,0-2.53-1.71-4.67-3.74-4.67H115.7c-2.06,0-3.74,2.1-3.74,4.67,0,.56-.1,1.11-.3,1.64l-9.31,24.93Z"/>
        </g>
      </g>
      <rect class="cls-2" x="1417.75" y="154.31" width="132.37" height="132.37"/>
    </g>
  </g>
</svg>