<?xml version="1.0" encoding="utf-8"?>
<!-- Generator: Adobe Illustrator 28.0.0, SVG Export Plug-In . SVG Version: 6.00 Build 0)  -->
<svg version="1.1" id="Layer_1" xmlns="http://www.w3.org/2000/svg" xmlns:xlink="http://www.w3.org/1999/xlink" x="0px" y="0px"
	 viewBox="0 0 24 24" style="enable-background:new 0 0 24 24;" xml:space="preserve">
<style type="text/css">
	.st0{fill-rule:evenodd;clip-rule:evenodd;}
</style>
<path class="st0" d="M16.7,4.3C15.8,4,14.6,4,12,4c-1.4,0-2.4,0-3.2,0.1C8,4.1,7.5,4.2,7.1,4.4C5.9,4.9,4.9,5.9,4.4,7.1
	C4.2,7.5,4.1,8,4.1,8.8C4,9.6,4,10.6,4,12s0,2.4,0.1,3.2s0.2,1.3,0.3,1.7c0.5,1.2,1.5,2.2,2.7,2.7c0.4,0.2,0.9,0.3,1.7,0.3
	C9.6,20,10.6,20,12,20s2.4,0,3.2-0.1s1.3-0.2,1.7-0.3c1.2-0.5,2.2-1.5,2.7-2.7c0.2-0.4,0.3-0.9,0.3-1.7C20,14.4,20,13.4,20,12
	c0-0.8,0-1.4,0-2s0.4-1,1-1s1,0.4,1,1s0,1.3,0,2l0,0c0,1.4,0,2.4-0.1,3.3s-0.2,1.6-0.5,2.3c-0.7,1.7-2.1,3.1-3.8,3.8
	c-0.7,0.3-1.4,0.4-2.3,0.5C14.5,22,13.4,22,12,22l0,0c-1.4,0-2.4,0-3.3-0.1s-1.6-0.2-2.3-0.5c-1.7-0.7-3.1-2.1-3.8-3.8
	c-0.3-0.7-0.4-1.4-0.5-2.3C2,14.5,2,13.4,2,12l0,0c0-1.4,0-2.4,0.1-3.3c0-0.9,0.1-1.7,0.4-2.4c0.7-1.7,2.1-3.1,3.8-3.8
	C7,2.2,7.8,2.1,8.6,2.1C9.5,2,10.6,2,12,2l0,0c0.1,0,0.1,0,0.2,0c2.3,0,3.9,0,5.1,0.4c0.5,0.2,0.8,0.7,0.6,1.3
	C17.8,4.2,17.2,4.5,16.7,4.3z M21.9,5c0.3,0.5,0.1,1.1-0.4,1.4l-0.2,0.1c-3.6,2.1-6.5,5.2-8.3,9c-0.1,0.3-0.4,0.5-0.7,0.6
	s-0.6,0-0.9-0.3l-4-4c-0.4-0.4-0.4-1,0-1.4s1-0.4,1.4,0l3.1,3c2-3.6,4.9-6.5,8.4-8.6l0.2-0.1C21,4.4,21.6,4.5,21.9,5z"/>
</svg>
