<?xml version="1.0" encoding="UTF-8"?>
<svg id="Layer_2" data-name="Layer 2" xmlns="http://www.w3.org/2000/svg" viewBox="0 0 71.15 71.15">
  <defs>
    <style>
      .cls-1 {
        fill: none;
      }

      .cls-1, .cls-2 {
        stroke-width: 0px;
      }

      .cls-2 {
        fill: #fff;
      }
    </style>
  </defs>
  <g id="Layer_1-2" data-name="Layer 1">
    <g>
      <g>
        <path class="cls-2" d="m23.81,33.44c3.12,6.18,7.71,10.78,13.89,13.91.51-.76,1.02-1.5,1.51-2.26.82-1.27,1.72-2.46,3.06-3.23,2.48-1.42,5.06-1.6,7.58-.23,2.74,1.49,5.41,3.12,8.06,4.78,2.22,1.39,3.18,4.01,2.61,6.66-1.28,5.91-6.13,10.5-12.11,11.46-2.82.45-5.52-.09-8.18-1.02C23.3,57.58,12.18,46.04,7.02,28.87c-2.48-8.25,3.13-16.92,11.64-18.3,2.57-.42,4.72.53,6.12,2.71,1.68,2.6,3.25,5.29,4.74,8.01,1.83,3.34.84,7.52-2.23,9.78-1.11.82-2.29,1.56-3.49,2.38Zm22.72,27.06c4.46,0,8.76-3.46,9.83-8.16.29-1.26-.02-2.01-1.14-2.68-2.31-1.38-4.61-2.77-6.93-4.13-1.94-1.15-3.88-.7-5.16,1.18-.94,1.38-1.86,2.78-2.79,4.16-.82,1.21-1.73,1.48-3.08.88-8.26-3.71-14.23-9.7-17.89-17.97-.58-1.31-.3-2.21.9-3.02,1.47-1,2.97-1.96,4.43-2.98,1.53-1.07,2.02-3.01,1.11-4.62-1.45-2.55-2.97-5.05-4.48-7.56-.44-.73-1.16-1.08-2-.93-5.5.99-9.36,6.11-8.59,11.41.31,2.1,1.01,4.18,1.81,6.15,5.33,13.12,14.68,22.1,27.97,26.97,1.83.67,3.68,1.33,6.01,1.31Z"/>
        <path class="cls-2" d="m40.08,13.23c8.66.48,15.68,6.77,17.36,14.83.26,1.25.36,2.53.43,3.81.07,1.24-.83,2.17-1.99,2.21-1.22.04-2.11-.81-2.16-2.1-.22-5.74-2.79-10.06-7.81-12.87-2.08-1.17-4.37-1.64-6.75-1.71-1.17-.03-2-.78-2.1-1.82-.12-1.28.75-2.28,2.05-2.35.32-.02.65,0,.98,0Z"/>
        <path class="cls-2" d="m39.38,21.58c5.55.16,10.01,4.63,10.16,10.18.04,1.28-.78,2.25-1.95,2.32-1.25.07-2.11-.76-2.22-2.11-.25-3.17-2.02-5.37-4.89-6.05-.44-.1-.9-.13-1.35-.17-1.34-.11-2.16-.99-2.09-2.24.07-1.17,1.03-1.97,2.33-1.93Z"/>
      </g>
      <circle class="cls-1" cx="35.58" cy="35.58" r="35.58"/>
    </g>
  </g>
</svg>