<?xml version="1.0" encoding="utf-8"?>
<!-- Generator: Adobe Illustrator 28.0.0, SVG Export Plug-In . SVG Version: 6.00 Build 0)  -->
<svg version="1.1" id="Layer_2_00000078749789967079058770000003241555420004675203_"
	 xmlns="http://www.w3.org/2000/svg" xmlns:xlink="http://www.w3.org/1999/xlink" x="0px" y="0px" viewBox="0 0 106.8 64.2"
	 style="enable-background:new 0 0 106.8 64.2;" xml:space="preserve">
<g id="Layer_1-2">
	<path d="M53.6,39c0.9-1.2,1.3-2.1,2-2.7c10.9-11,21.9-22,32.8-32.9c3.2-3.2,7-4.1,11.2-2.7c4.2,1.4,6.5,4.5,7.1,8.9
		c0.5,3.7-1,6.8-3.6,9.4c-8.3,8.3-16.6,16.6-24.9,24.9c-5.5,5.5-10.9,11-16.4,16.4c-5.2,5.2-11.3,5.2-16.5,0.1
		C31.4,46.5,17.5,32.7,3.7,18.8C-1,14.1-1.2,7.6,3.1,3.2c4.4-4.4,11-4.2,15.8,0.6c10.8,10.8,21.5,21.6,32.3,32.4
		C51.9,36.8,52.4,37.6,53.6,39L53.6,39z"/>
</g>
</svg>
