<?xml version="1.0" encoding="UTF-8"?>
<svg id="Layer_2" data-name="Layer 2" xmlns="http://www.w3.org/2000/svg" viewBox="0 0 120.73 145.09">
  <defs>
    <style>
      .cls-1 {
        stroke-width: 0px;
      }
    </style>
  </defs>
  <g id="Layer_1-2" data-name="Layer 1">
    <path class="cls-1" d="m98.74,5.96c-5.67-3.31-11.8-5.2-18.35-5.72-.37-.03-.73-.16-1.09-.24h-5.38c-2.55.45-5.11.8-7.63,1.36-4.7,1.03-9.05,2.95-13.1,5.52-10.96,6.95-21.85,14-32.87,20.86C2.31,38.95-2.67,61.48,5.99,79.08c.32.66.5,1.15.06,1.92-8.73,15.36-7.94,30.49,1.9,44.92,7.94,11.65,19.34,17.81,33.42,18.95.37.03.73.15,1.09.22h3.4c2.98-.46,5.98-.78,8.92-1.41,4.75-1.01,9.13-2.99,13.22-5.59,10.75-6.83,21.52-13.64,32.25-20.51,13-8.33,19.09-20.35,18.68-35.69-.15-5.53-1.66-10.79-4.07-15.78-.25-.52-.29-1.42-.01-1.89,12.48-21.11,4.22-46.4-16.1-58.26Zm-61.34,59.86c1.59,3.53,5.69,5.42,9.46,4.29.93-.28,1.85-.72,2.68-1.24,3.96-2.48,7.88-5.02,11.83-7.52,16.24-10.29,37.86-.45,40.48,18.61,1.3,9.49-2.04,17.44-10.1,22.78-11.29,7.48-22.73,14.74-34.26,21.84-15.48,9.52-35.76,1.07-39.82-16.44-1.18-5.06-.57-10.01,1.06-15.11,1.29.9,2.36,1.66,3.45,2.4,3.54,2.4,7.38,4.18,11.46,5.44.85.26,1.3.54,1.23,1.63-.2,3.3,1.17,5.89,4.05,7.55,2.84,1.64,5.71,1.47,8.45-.27,11.03-7.01,22.05-14.04,33.06-21.09,3.5-2.24,4.58-6.02,2.83-9.6-1.67-3.42-6.03-5.25-9.62-3.99-.88.31-1.73.75-2.52,1.25-3.92,2.45-7.79,4.98-11.72,7.42-15.4,9.55-35.97,1-40.02-16.63-2.24-9.74,1.72-19.74,10.11-25.16,11.22-7.24,22.46-14.46,33.75-21.58,16.06-10.12,37.3-.49,40.35,18.23.65,4,.01,9.32-1.64,13.1-4.89-3.64-10.15-6.52-15.97-8.09-.09-1.31-.02-2.57-.29-3.74-1.27-5.41-7.44-7.79-12.27-4.71-9.83,6.27-19.62,12.59-29.43,18.89-1.19.76-2.39,1.52-3.58,2.29-3.44,2.24-4.61,5.91-3.01,9.45Z"/>
  </g>
</svg>