<?xml version="1.0" encoding="UTF-8"?>
<svg id="Layer_2" data-name="Layer 2" xmlns="http://www.w3.org/2000/svg" viewBox="0 0 65.27 65.24">
  <defs>
    <style>
      .cls-1 {
        fill: #19335e;
        stroke-width: 0px;
      }
    </style>
  </defs>
  <g id="Layer_1-2" data-name="Layer 1">
    <g>
      <path class="cls-1" d="m20.91,27.64c3.75,7.44,9.28,12.97,16.71,16.74.61-.91,1.23-1.8,1.82-2.72.98-1.53,2.06-2.96,3.68-3.89,2.99-1.71,6.09-1.93,9.12-.28,3.3,1.8,6.51,3.76,9.7,5.75,2.67,1.67,3.83,4.83,3.14,8.01-1.54,7.11-7.38,12.64-14.57,13.79-3.4.54-6.65-.1-9.84-1.22C20.3,56.69,6.91,42.8.71,22.14-2.27,12.21,4.48,1.78,14.72.12c3.1-.5,5.68.64,7.37,3.26,2.02,3.13,3.91,6.36,5.7,9.64,2.2,4.02,1.01,9.05-2.68,11.77-1.34.99-2.75,1.88-4.2,2.86Zm27.34,32.57c5.37,0,10.54-4.16,11.83-9.82.35-1.52-.03-2.42-1.37-3.23-2.78-1.66-5.55-3.33-8.34-4.97-2.34-1.38-4.67-.84-6.2,1.42-1.13,1.66-2.24,3.34-3.36,5.01-.99,1.46-2.08,1.79-3.71,1.06-9.93-4.46-17.12-11.67-21.53-21.63-.7-1.57-.36-2.66,1.08-3.63,1.77-1.2,3.57-2.36,5.33-3.59,1.84-1.29,2.44-3.63,1.34-5.56-1.74-3.06-3.57-6.08-5.39-9.09-.53-.88-1.4-1.3-2.41-1.12-6.62,1.19-11.26,7.35-10.33,13.73.37,2.52,1.22,5.03,2.18,7.4,6.41,15.78,17.67,26.59,33.65,32.45,2.2.81,4.43,1.6,7.23,1.57Z"/>
      <path class="cls-1" d="m40.49,3.33c10.42.58,18.87,8.15,20.89,17.85.31,1.5.44,3.05.52,4.58.08,1.49-1,2.61-2.4,2.65-1.46.05-2.54-.97-2.6-2.53-.26-6.91-3.36-12.11-9.4-15.49-2.51-1.4-5.26-1.98-8.12-2.05-1.4-.04-2.41-.94-2.53-2.19-.15-1.54.9-2.75,2.46-2.82.39-.02.78,0,1.17,0Z"/>
      <path class="cls-1" d="m39.65,13.37c6.68.19,12.05,5.57,12.23,12.25.04,1.55-.94,2.71-2.35,2.79-1.5.08-2.54-.91-2.67-2.54-.3-3.81-2.43-6.47-5.88-7.27-.53-.12-1.08-.16-1.63-.21-1.61-.13-2.6-1.19-2.51-2.7.08-1.41,1.24-2.37,2.81-2.32Z"/>
    </g>
  </g>
</svg>