<?xml version="1.0" encoding="UTF-8"?>
<svg id="Layer_2" data-name="Layer 2" xmlns="http://www.w3.org/2000/svg" viewBox="0 0 466.69 145.09">
  <defs>
    <style>
      .cls-1 {
        stroke-width: 0px;
      }
    </style>
  </defs>
  <g id="Layer_1-2" data-name="Layer 1">
    <g>
      <path class="cls-1" d="m164.42,53.1c-1.24.54-2.82.81-4.73.81-2.05,0-3.72-.31-5-.92-1.28-.61-2.21-1.41-2.78-2.4-.58-.99-.86-2.01-.86-3.05h-7.51c0,2.48.62,4.71,1.86,6.67,1.24,1.96,3.07,3.5,5.48,4.62,2.41,1.12,5.35,1.67,8.8,1.67,3.28,0,6.11-.52,8.5-1.57,2.39-1.04,4.24-2.51,5.54-4.4s1.94-4.08,1.94-6.56c0-2.34-.59-4.34-1.78-5.99-1.19-1.66-2.83-2.97-4.94-3.94s-4.58-1.57-7.43-1.78l-3.4-.32c-1.94-.14-3.37-.68-4.27-1.59-.9-.92-1.35-1.99-1.35-3.21,0-1.01.25-1.93.76-2.78.5-.85,1.25-1.53,2.24-2.05.99-.52,2.24-.78,3.75-.78s2.9.29,3.94.86c1.04.58,1.82,1.32,2.32,2.24.5.92.76,1.9.76,2.94h7.51c0-2.56-.59-4.78-1.76-6.67-1.17-1.89-2.84-3.36-5.02-4.4-2.18-1.04-4.76-1.57-7.75-1.57s-5.39.5-7.53,1.49c-2.14.99-3.81,2.39-5,4.21-1.19,1.82-1.78,3.99-1.78,6.51,0,3.35,1.12,6.04,3.38,8.07,2.25,2.03,5.27,3.21,9.05,3.54l3.46.32c2.52.22,4.37.75,5.56,1.59,1.19.85,1.78,1.95,1.78,3.32,0,1.12-.32,2.12-.94,3-.63.88-1.57,1.59-2.81,2.13Z"/>
      <polygon class="cls-1" points="214.89 20.05 207.22 20.05 197.91 53.1 196.04 53.1 185.94 20.05 178.01 20.05 190.53 59.47 203.22 59.47 214.89 20.05"/>
      <polygon class="cls-1" points="228.6 59.47 245.4 59.47 245.4 52.99 228.6 52.99 228.6 42.68 243.99 42.68 243.99 36.2 228.6 36.2 228.6 26.53 244.97 26.53 244.97 20.05 228.6 20.05 227.52 20.05 221.1 20.05 221.1 59.47 227.52 59.47 228.6 59.47"/>
      <polygon class="cls-1" points="260.95 20.05 253.28 20.05 253.28 59.47 259.87 59.47 260.95 59.47 276.88 59.47 276.88 52.72 260.95 52.72 260.95 20.05"/>
      <polygon class="cls-1" points="286.76 59.47 294.43 59.47 294.43 26.8 305.82 26.8 305.82 20.05 275.37 20.05 275.37 26.8 286.76 26.8 286.76 59.47"/>
      <polygon class="cls-1" points="319.43 59.47 336.23 59.47 336.23 52.99 319.43 52.99 319.43 42.68 334.82 42.68 334.82 36.2 319.43 36.2 319.43 26.53 335.79 26.53 335.79 20.05 319.43 20.05 318.35 20.05 311.93 20.05 311.93 59.47 318.35 59.47 319.43 59.47"/>
      <path class="cls-1" d="m180.41,90.14c-1.75-1.94-3.92-3.5-6.53-4.67-2.61-1.17-5.64-1.76-9.1-1.76s-6.48.59-9.07,1.76c-2.59,1.17-4.76,2.73-6.51,4.67-1.75,1.94-3.05,4.11-3.92,6.51-.86,2.39-1.3,4.8-1.3,7.21v1.19c0,2.2.41,4.47,1.24,6.83.83,2.36,2.1,4.56,3.81,6.62,1.71,2.05,3.87,3.7,6.48,4.94,2.61,1.24,5.7,1.86,9.26,1.86s6.65-.62,9.26-1.86c2.61-1.24,4.77-2.89,6.48-4.94,1.71-2.05,2.99-4.26,3.83-6.62.85-2.36,1.27-4.63,1.27-6.83v-1.19c0-2.41-.43-4.81-1.3-7.21-.86-2.39-2.17-4.56-3.92-6.51Zm-3.46,19.57c-.59,1.64-1.46,3.1-2.59,4.37-1.13,1.28-2.51,2.28-4.13,3-1.62.72-3.44,1.08-5.45,1.08s-3.78-.36-5.4-1.08c-1.62-.72-3-1.72-4.13-3-1.13-1.28-2-2.74-2.59-4.37-.59-1.64-.89-3.38-.89-5.21,0-1.94.3-3.74.89-5.4.59-1.66,1.46-3.1,2.59-4.35,1.13-1.24,2.51-2.2,4.13-2.89,1.62-.68,3.42-1.03,5.4-1.03s3.82.34,5.43,1.03c1.6.68,2.97,1.65,4.1,2.89,1.13,1.24,2.01,2.69,2.62,4.35.61,1.66.92,3.46.92,5.4,0,1.84-.3,3.57-.89,5.21Z"/>
      <polygon class="cls-1" points="222.83 117.9 222.07 117.9 205.55 84.85 192.96 84.85 192.96 124.27 200.09 124.27 200.09 91.22 200.85 91.22 217.37 124.27 230.06 124.27 230.06 84.85 222.83 84.85 222.83 117.9"/>
      <polygon class="cls-1" points="247.29 107.48 262.68 107.48 262.68 101 247.29 101 247.29 91.33 263.65 91.33 263.65 84.85 247.29 84.85 246.21 84.85 239.78 84.85 239.78 124.27 246.21 124.27 247.29 124.27 264.08 124.27 264.08 117.79 247.29 117.79 247.29 107.48"/>
      <path class="cls-1" d="m312.84,97.97c0-2.77-.61-5.16-1.84-7.16-1.22-2-3-3.54-5.32-4.62-2.32-1.08-5.14-1.62-8.45-1.62h-13.61v39.69h7.67v-12.1h5.94c3.31,0,6.13-.54,8.45-1.62,2.32-1.08,4.09-2.63,5.32-4.64,1.22-2.02,1.84-4.37,1.84-7.07v-.86Zm-8.64,4.1c-.58,1.08-1.4,1.93-2.46,2.54-1.06.61-2.35.92-3.86.92h-6.59v-14.31h6.59c1.51,0,2.8.3,3.86.89,1.06.59,1.88,1.43,2.46,2.51s.86,2.34.86,3.78-.29,2.59-.86,3.67Z"/>
      <path class="cls-1" d="m325.8,84.85l-13.39,39.42h7.67l3.46-10.42h17.18l3.56,10.42h7.94l-13.82-39.42h-12.58Zm-.1,22.46l5.32-16.04h1.99l5.47,16.04h-12.78Z"/>
      <path class="cls-1" d="m373.65,109.96h11.12v4.32c-.82.92-1.8,1.73-3,2.4-1.96,1.1-4.28,1.65-6.94,1.65-1.94,0-3.71-.31-5.29-.94-1.58-.63-2.93-1.55-4.05-2.75-1.12-1.21-1.98-2.67-2.59-4.4-.61-1.73-.92-3.67-.92-5.83,0-2.02.28-3.85.84-5.51.56-1.66,1.36-3.09,2.4-4.29,1.04-1.21,2.31-2.13,3.81-2.78,1.49-.65,3.14-.97,4.94-.97s3.57.32,5.1.97c1.53.65,2.8,1.58,3.81,2.78,1.01,1.21,1.62,2.66,1.84,4.35h7.78c-.29-2.99-1.24-5.62-2.86-7.91-1.62-2.29-3.76-4.08-6.43-5.37-2.67-1.3-5.74-1.94-9.23-1.94-3.2,0-6.04.57-8.5,1.7s-4.54,2.66-6.21,4.59c-1.67,1.93-2.93,4.08-3.78,6.45s-1.27,4.81-1.27,7.29v1.19c0,2.59.44,5.1,1.32,7.53.88,2.43,2.19,4.61,3.92,6.53,1.73,1.93,3.88,3.46,6.45,4.59s5.55,1.7,8.94,1.7c3.82,0,7.18-.71,10.1-2.13s5.22-3.41,6.91-5.97v-7.24h3.29v-5.72h-21.49v5.72Z"/>
      <polygon class="cls-1" points="408.96 107.48 424.35 107.48 424.35 101 408.96 101 408.96 91.33 425.32 91.33 425.32 84.85 408.96 84.85 407.88 84.85 401.46 84.85 401.46 124.27 407.88 124.27 408.96 124.27 425.76 124.27 425.76 117.79 408.96 117.79 408.96 107.48"/>
      <path class="cls-1" d="m466.69,124.27l-10.53-14.45c.1-.04.22-.07.32-.11,2.3-.92,4.09-2.32,5.37-4.21,1.28-1.89,1.92-4.27,1.92-7.15v-.86c0-2.92-.63-5.32-1.89-7.21-1.26-1.89-3.05-3.31-5.37-4.27-2.32-.95-5.07-1.43-8.23-1.43h-14.63v39.69h7.67v-13.18h6.97s.08,0,.12,0l9.27,13.18h9.02Zm-25.38-33.16h7.78c1.4,0,2.62.3,3.65.89,1.03.59,1.82,1.4,2.38,2.43.56,1.03.84,2.22.84,3.59s-.28,2.56-.84,3.59c-.56,1.03-1.35,1.83-2.38,2.4-1.03.58-2.24.86-3.65.86h-7.78v-13.77Z"/>
      <path class="cls-1" d="m98.74,5.96c-5.67-3.31-11.8-5.2-18.35-5.72-.37-.03-.73-.16-1.09-.24h-5.38c-2.55.45-5.11.8-7.63,1.36-4.7,1.03-9.05,2.95-13.1,5.52-10.96,6.95-21.85,14-32.87,20.86C2.31,38.95-2.67,61.48,5.99,79.08c.32.66.5,1.15.06,1.92-8.73,15.36-7.94,30.49,1.9,44.92,7.94,11.65,19.34,17.81,33.42,18.95.37.03.73.15,1.09.22h3.4c2.98-.46,5.98-.78,8.92-1.41,4.75-1.01,9.13-2.99,13.22-5.59,10.75-6.83,21.52-13.64,32.25-20.51,13-8.33,19.09-20.35,18.68-35.69-.15-5.53-1.66-10.79-4.07-15.78-.25-.52-.29-1.42-.01-1.89,12.48-21.11,4.22-46.4-16.1-58.26Zm-61.34,59.86c1.59,3.53,5.69,5.42,9.46,4.29.93-.28,1.85-.72,2.68-1.24,3.96-2.48,7.88-5.02,11.83-7.52,16.24-10.29,37.86-.45,40.48,18.61,1.3,9.49-2.04,17.44-10.1,22.78-11.29,7.48-22.73,14.74-34.26,21.84-15.48,9.52-35.76,1.07-39.82-16.44-1.18-5.06-.57-10.01,1.06-15.11,1.29.9,2.36,1.66,3.45,2.4,3.54,2.4,7.38,4.18,11.46,5.44.85.26,1.3.54,1.23,1.63-.2,3.3,1.17,5.89,4.05,7.55,2.84,1.64,5.71,1.47,8.45-.27,11.03-7.01,22.05-14.04,33.06-21.09,3.5-2.24,4.58-6.02,2.83-9.6-1.67-3.42-6.03-5.25-9.62-3.99-.88.31-1.73.75-2.52,1.25-3.92,2.45-7.79,4.98-11.72,7.42-15.4,9.55-35.97,1-40.02-16.63-2.24-9.74,1.72-19.74,10.11-25.16,11.22-7.24,22.46-14.46,33.75-21.58,16.06-10.12,37.3-.49,40.35,18.23.65,4,.01,9.32-1.64,13.1-4.89-3.64-10.15-6.52-15.97-8.09-.09-1.31-.02-2.57-.29-3.74-1.27-5.41-7.44-7.79-12.27-4.71-9.83,6.27-19.62,12.59-29.43,18.89-1.19.76-2.39,1.52-3.58,2.29-3.44,2.24-4.61,5.91-3.01,9.45Z"/>
    </g>
  </g>
</svg>